<svg xmlns="http://www.w3.org/2000/svg" xmlns:xlink="http://www.w3.org/1999/xlink" width="250" zoomAndPan="magnify" viewBox="0 0 187.5 187.499992" height="250" preserveAspectRatio="xMidYMid meet" version="1.0"><defs><g/></defs><g fill="#000000" fill-opacity="1"><g transform="translate(23.942671, 107.448529)"><g><path d="M 31.03125 -28.578125 L 34.5 0 L 31.234375 0 L 28.78125 -21.0625 L 19.390625 0 L 17.765625 0 L 8.28125 -21.1875 L 5.84375 0 L 2.65625 0 L 6.125 -28.578125 L 8.40625 -28.578125 L 18.625 -5.671875 L 28.828125 -28.578125 Z M 31.03125 -28.578125 "/></g></g></g><g fill="#000000" fill-opacity="1"><g transform="translate(61.087683, 107.448529)"><g><path d="M 26.53125 0 L 23.03125 0 L 19.96875 -7.75 L 7.3125 -7.75 L 4.25 0 L 0.8125 0 L 12.453125 -28.578125 L 14.90625 -28.578125 Z M 18.734375 -10.8125 L 13.640625 -23.71875 L 8.53125 -10.8125 Z M 18.734375 -10.8125 "/></g></g></g><g fill="#000000" fill-opacity="1"><g transform="translate(88.436208, 107.448529)"><g><path d="M 20.625 0 L 10.5 -12.25 L 7.140625 -12.25 L 7.140625 0 L 3.875 0 L 3.875 -28.578125 L 12.25 -28.578125 C 14.070312 -28.578125 15.679688 -28.222656 17.078125 -27.515625 C 18.484375 -26.804688 19.570312 -25.832031 20.34375 -24.59375 C 21.125 -23.351562 21.515625 -21.960938 21.515625 -20.421875 C 21.515625 -18.378906 20.867188 -16.628906 19.578125 -15.171875 C 18.285156 -13.710938 16.550781 -12.789062 14.375 -12.40625 L 24.703125 0 Z M 7.140625 -25.515625 L 7.140625 -15.3125 L 12.25 -15.3125 C 14.039062 -15.3125 15.46875 -15.773438 16.53125 -16.703125 C 17.59375 -17.628906 18.125 -18.867188 18.125 -20.421875 C 18.125 -21.960938 17.59375 -23.195312 16.53125 -24.125 C 15.46875 -25.050781 14.039062 -25.515625 12.25 -25.515625 Z M 7.140625 -25.515625 "/></g></g></g><g fill="#000000" fill-opacity="1"><g transform="translate(113.33562, 107.448529)"><g><path d="M 7.34375 0 L 4.078125 0 L 4.078125 -28.578125 L 7.34375 -28.578125 Z M 7.34375 0 "/></g></g></g><g fill="#000000" fill-opacity="1"><g transform="translate(124.764862, 107.448529)"><g><path d="M 7.34375 0 L 4.078125 0 L 4.078125 -28.578125 L 7.34375 -28.578125 Z M 7.34375 0 "/></g></g></g><g fill="#000000" fill-opacity="1"><g transform="translate(136.194104, 107.448529)"><g><path d="M 26.53125 0 L 23.03125 0 L 19.96875 -7.75 L 7.3125 -7.75 L 4.25 0 L 0.8125 0 L 12.453125 -28.578125 L 14.90625 -28.578125 Z M 18.734375 -10.8125 L 13.640625 -23.71875 L 8.53125 -10.8125 Z M 18.734375 -10.8125 "/></g></g></g><path stroke-linecap="butt" transform="matrix(0.750953, 0, 0, 0.75, 25.883051, 88.461476)" fill="none" stroke-linejoin="miter" d="M -0.000318012 7.999283 L 196.754906 7.999283 " stroke="#ffffff" stroke-width="16" stroke-opacity="1" stroke-miterlimit="4"/><g fill="#1c2120" fill-opacity="1"><g transform="translate(25.883051, 98.948407)"><g><path d="M 2.0625 -9.265625 C 2.46875 -9.492188 2.691406 -9.625 2.734375 -9.65625 C 2.859375 -9.789062 2.988281 -9.785156 3.125 -9.640625 C 3.21875 -9.546875 3.34375 -9.546875 3.5 -9.640625 C 3.65625 -9.722656 3.851562 -9.707031 4.09375 -9.59375 C 4.238281 -9.519531 4.335938 -9.4375 4.390625 -9.34375 C 4.441406 -9.25 4.484375 -9.070312 4.515625 -8.8125 C 4.578125 -8.46875 4.648438 -8.257812 4.734375 -8.1875 C 4.816406 -8.125 4.945312 -8.171875 5.125 -8.328125 C 5.28125 -8.492188 5.410156 -8.578125 5.515625 -8.578125 C 5.628906 -8.578125 5.785156 -8.640625 5.984375 -8.765625 C 6.296875 -8.972656 6.597656 -8.96875 6.890625 -8.75 C 7.191406 -8.539062 7.34375 -8.21875 7.34375 -7.78125 C 7.34375 -7.539062 7.378906 -7.414062 7.453125 -7.40625 C 7.523438 -7.394531 7.675781 -7.484375 7.90625 -7.671875 C 8.488281 -8.148438 8.941406 -8.429688 9.265625 -8.515625 C 9.585938 -8.597656 9.90625 -8.515625 10.21875 -8.265625 L 10.59375 -7.9375 L 10.515625 -7.03125 C 10.453125 -6.425781 10.320312 -5.929688 10.125 -5.546875 C 9.9375 -5.140625 9.84375 -4.898438 9.84375 -4.828125 C 9.84375 -4.765625 9.789062 -4.617188 9.6875 -4.390625 C 9.488281 -4.003906 9.410156 -3.4375 9.453125 -2.6875 C 9.492188 -1.945312 9.632812 -1.535156 9.875 -1.453125 C 10.03125 -1.421875 10.242188 -1.484375 10.515625 -1.640625 C 10.773438 -1.816406 11.007812 -1.90625 11.21875 -1.90625 C 11.382812 -1.90625 11.535156 -1.828125 11.671875 -1.671875 C 11.816406 -1.515625 11.863281 -1.375 11.8125 -1.25 C 11.75 -1.113281 11.554688 -0.96875 11.234375 -0.8125 C 10.910156 -0.65625 10.59375 -0.554688 10.28125 -0.515625 C 10.0625 -0.484375 9.894531 -0.476562 9.78125 -0.5 C 9.675781 -0.519531 9.546875 -0.585938 9.390625 -0.703125 C 9.046875 -0.953125 8.816406 -1.226562 8.703125 -1.53125 C 8.585938 -1.832031 8.53125 -2.300781 8.53125 -2.9375 C 8.53125 -3.707031 8.566406 -4.21875 8.640625 -4.46875 C 8.773438 -4.882812 8.894531 -5.328125 9 -5.796875 C 9.101562 -6.273438 9.171875 -6.648438 9.203125 -6.921875 C 9.234375 -7.203125 9.21875 -7.359375 9.15625 -7.390625 C 8.9375 -7.390625 8.4375 -6.90625 7.65625 -5.9375 C 6.882812 -4.96875 6.453125 -4.285156 6.359375 -3.890625 C 6.316406 -3.671875 6.160156 -3.25 5.890625 -2.625 C 5.617188 -2.007812 5.347656 -1.445312 5.078125 -0.9375 C 4.941406 -0.6875 4.78125 -0.535156 4.59375 -0.484375 C 4.40625 -0.429688 4.253906 -0.488281 4.140625 -0.65625 C 4.023438 -0.820312 4.003906 -1.050781 4.078125 -1.34375 C 4.109375 -1.5625 4.203125 -1.832031 4.359375 -2.15625 C 4.523438 -2.445312 4.609375 -2.671875 4.609375 -2.828125 C 4.609375 -2.984375 4.679688 -3.164062 4.828125 -3.375 C 5.003906 -3.582031 5.097656 -3.78125 5.109375 -3.96875 C 5.128906 -4.164062 5.203125 -4.335938 5.328125 -4.484375 C 5.492188 -4.671875 5.71875 -5.191406 6 -6.046875 C 6.28125 -6.910156 6.382812 -7.40625 6.3125 -7.53125 C 6.28125 -7.582031 6.101562 -7.53125 5.78125 -7.375 C 5.46875 -7.21875 5.3125 -7.101562 5.3125 -7.03125 C 5.3125 -6.957031 5.085938 -6.546875 4.640625 -5.796875 C 4.191406 -5.109375 3.875 -4.5 3.6875 -3.96875 C 3.488281 -3.46875 3.296875 -3.078125 3.109375 -2.796875 C 2.898438 -2.484375 2.796875 -2.285156 2.796875 -2.203125 C 2.796875 -2.078125 2.644531 -1.742188 2.34375 -1.203125 C 2.195312 -0.921875 2.078125 -0.703125 1.984375 -0.546875 C 1.890625 -0.398438 1.820312 -0.320312 1.78125 -0.3125 C 1.664062 -0.25 1.566406 -0.25 1.484375 -0.3125 C 1.054688 -0.582031 1.003906 -1.003906 1.328125 -1.578125 C 1.515625 -1.921875 1.648438 -2.175781 1.734375 -2.34375 C 1.921875 -2.664062 2.054688 -2.914062 2.140625 -3.09375 C 2.242188 -3.320312 2.34375 -3.585938 2.4375 -3.890625 C 2.539062 -4.191406 2.625 -4.460938 2.6875 -4.703125 C 2.75 -4.941406 2.828125 -5.210938 2.921875 -5.515625 C 3.015625 -5.816406 3.113281 -6.078125 3.21875 -6.296875 C 3.40625 -6.742188 3.515625 -7.050781 3.546875 -7.21875 C 3.578125 -7.382812 3.578125 -7.628906 3.546875 -7.953125 L 3.46875 -8.640625 L 3.046875 -8.609375 C 2.773438 -8.578125 2.578125 -8.503906 2.453125 -8.390625 C 2.335938 -8.285156 2.328125 -8.171875 2.421875 -8.046875 C 2.640625 -7.796875 2.5 -7.40625 2 -6.875 C 1.4375 -6.300781 0.992188 -6.109375 0.671875 -6.296875 C 0.492188 -6.390625 0.40625 -6.601562 0.40625 -6.9375 C 0.40625 -7.28125 0.488281 -7.640625 0.65625 -8.015625 C 0.769531 -8.285156 0.90625 -8.488281 1.0625 -8.625 C 1.226562 -8.769531 1.5625 -8.984375 2.0625 -9.265625 Z M 2.0625 -9.265625 "/></g></g></g><g fill="#1c2120" fill-opacity="1"><g transform="translate(40.516121, 98.948407)"><g><path d="M 6.140625 -1.171875 C 6.265625 -1.265625 6.367188 -1.300781 6.453125 -1.28125 C 6.535156 -1.269531 6.578125 -1.1875 6.578125 -1.03125 C 6.578125 -1 6.570312 -0.960938 6.5625 -0.921875 C 6.550781 -0.890625 6.535156 -0.859375 6.515625 -0.828125 C 6.503906 -0.804688 6.484375 -0.78125 6.453125 -0.75 C 6.421875 -0.71875 6.390625 -0.6875 6.359375 -0.65625 C 6.335938 -0.632812 6.304688 -0.609375 6.265625 -0.578125 C 6.222656 -0.546875 6.1875 -0.519531 6.15625 -0.5 C 6.132812 -0.488281 6.101562 -0.46875 6.0625 -0.4375 C 6.03125 -0.414062 6.003906 -0.398438 5.984375 -0.390625 C 5.859375 -0.304688 5.734375 -0.238281 5.609375 -0.1875 C 5.585938 -0.175781 5.507812 -0.132812 5.375 -0.0625 L 5.328125 -0.015625 C 5.148438 0.148438 4.898438 0.253906 4.578125 0.296875 C 4.367188 0.316406 4.207031 0.316406 4.09375 0.296875 C 3.988281 0.273438 3.835938 0.222656 3.640625 0.140625 C 3.335938 -0.00390625 3.140625 -0.125 3.046875 -0.21875 C 2.984375 -0.257812 2.929688 -0.273438 2.890625 -0.265625 C 2.847656 -0.265625 2.765625 -0.21875 2.640625 -0.125 C 2.242188 0.15625 1.773438 0.3125 1.234375 0.34375 C 0.703125 0.382812 0.351562 0.28125 0.1875 0.03125 C 0.0820312 -0.132812 0.0351562 -0.445312 0.046875 -0.90625 C 0.0546875 -1.363281 0.113281 -1.691406 0.21875 -1.890625 C 0.3125 -2.066406 0.382812 -2.195312 0.4375 -2.28125 C 0.5 -2.363281 0.554688 -2.4375 0.609375 -2.5 C 0.660156 -2.582031 0.742188 -2.695312 0.859375 -2.84375 C 1.265625 -3.34375 1.582031 -3.679688 1.8125 -3.859375 C 1.988281 -4.003906 2.195312 -4.125 2.4375 -4.21875 C 2.6875 -4.320312 2.941406 -4.390625 3.203125 -4.421875 C 3.472656 -4.453125 3.710938 -4.414062 3.921875 -4.3125 C 4.160156 -4.1875 4.3125 -3.96875 4.375 -3.65625 C 4.4375 -3.34375 4.429688 -3.039062 4.359375 -2.75 C 4.285156 -2.46875 4.1875 -2.195312 4.0625 -1.9375 C 3.945312 -1.695312 3.863281 -1.429688 3.8125 -1.140625 C 3.757812 -0.847656 3.757812 -0.660156 3.8125 -0.578125 C 3.9375 -0.335938 4.335938 -0.320312 5.015625 -0.53125 C 5.046875 -0.53125 5.070312 -0.53125 5.09375 -0.53125 C 5.132812 -0.550781 5.164062 -0.566406 5.1875 -0.578125 C 5.59375 -0.785156 5.910156 -0.984375 6.140625 -1.171875 Z M 3.25 -2.96875 C 3.3125 -3.007812 3.347656 -3.039062 3.359375 -3.0625 C 3.367188 -3.09375 3.351562 -3.128906 3.3125 -3.171875 C 3.226562 -3.253906 3.113281 -3.304688 2.96875 -3.328125 C 2.832031 -3.359375 2.703125 -3.351562 2.578125 -3.3125 C 2.441406 -3.28125 2.234375 -3.148438 1.953125 -2.921875 C 1.679688 -2.703125 1.5 -2.507812 1.40625 -2.34375 C 1.28125 -2.164062 1.171875 -2.003906 1.078125 -1.859375 C 0.972656 -1.703125 0.898438 -1.472656 0.859375 -1.171875 C 0.828125 -0.878906 0.84375 -0.691406 0.90625 -0.609375 C 0.96875 -0.523438 1.109375 -0.484375 1.328125 -0.484375 C 1.546875 -0.484375 1.753906 -0.519531 1.953125 -0.59375 C 2.128906 -0.6875 2.265625 -0.820312 2.359375 -1 C 2.515625 -1.300781 2.640625 -1.546875 2.734375 -1.734375 C 2.898438 -2.015625 2.984375 -2.207031 2.984375 -2.3125 C 2.984375 -2.375 3.007812 -2.4375 3.0625 -2.5 C 3.113281 -2.570312 3.128906 -2.644531 3.109375 -2.71875 C 3.078125 -2.820312 3.125 -2.90625 3.25 -2.96875 Z M 3.25 -2.96875 "/></g></g></g><g fill="#1c2120" fill-opacity="1"><g transform="translate(50.016597, 98.948407)"><g><path d="M 6.140625 -1.546875 C 6.273438 -1.671875 6.394531 -1.722656 6.5 -1.703125 C 6.601562 -1.679688 6.660156 -1.582031 6.671875 -1.40625 C 6.671875 -1.351562 6.660156 -1.300781 6.640625 -1.25 C 6.628906 -1.207031 6.601562 -1.164062 6.5625 -1.125 C 6.53125 -1.082031 6.492188 -1.039062 6.453125 -1 C 6.421875 -0.957031 6.378906 -0.914062 6.328125 -0.875 C 6.273438 -0.84375 6.234375 -0.8125 6.203125 -0.78125 C 6.171875 -0.757812 6.125 -0.726562 6.0625 -0.6875 C 6.007812 -0.65625 5.972656 -0.628906 5.953125 -0.609375 C 5.796875 -0.503906 5.640625 -0.421875 5.484375 -0.359375 C 5.460938 -0.359375 5.441406 -0.347656 5.421875 -0.328125 C 5.410156 -0.296875 5.382812 -0.273438 5.34375 -0.265625 C 5.300781 -0.242188 5.242188 -0.222656 5.171875 -0.203125 C 5.023438 -0.117188 4.804688 -0.0625 4.515625 -0.03125 C 4.234375 0 3.972656 0.0078125 3.734375 0 C 3.492188 -0.0195312 3.335938 -0.0507812 3.265625 -0.09375 C 3.210938 -0.125 3.148438 -0.203125 3.078125 -0.328125 C 3.003906 -0.453125 2.941406 -0.570312 2.890625 -0.6875 C 2.847656 -0.8125 2.816406 -0.90625 2.796875 -0.96875 C 2.753906 -1.15625 2.738281 -1.351562 2.75 -1.5625 C 2.769531 -1.78125 2.804688 -2.117188 2.859375 -2.578125 L 2.859375 -2.71875 C 2.859375 -2.75 2.847656 -2.769531 2.828125 -2.78125 C 2.804688 -2.800781 2.773438 -2.816406 2.734375 -2.828125 C 2.691406 -2.828125 2.640625 -2.828125 2.578125 -2.828125 C 2.503906 -2.828125 2.414062 -2.835938 2.3125 -2.859375 C 2.21875 -2.878906 2.125 -2.898438 2.03125 -2.921875 C 1.945312 -2.953125 1.867188 -2.96875 1.796875 -2.96875 C 1.796875 -2.96875 1.769531 -2.863281 1.71875 -2.65625 C 1.675781 -2.457031 1.613281 -2.242188 1.53125 -2.015625 C 1.445312 -1.796875 1.375 -1.664062 1.3125 -1.625 C 1.082031 -1.488281 0.835938 -1.394531 0.578125 -1.34375 C 0.253906 -1.269531 0.40625 -1.992188 1.03125 -3.515625 C 1.050781 -3.554688 1.082031 -3.632812 1.125 -3.75 C 1.175781 -3.875 1.210938 -3.960938 1.234375 -4.015625 C 1.253906 -4.066406 1.285156 -4.144531 1.328125 -4.25 C 1.367188 -4.351562 1.398438 -4.4375 1.421875 -4.5 C 1.441406 -4.570312 1.460938 -4.65625 1.484375 -4.75 C 1.503906 -4.84375 1.519531 -4.929688 1.53125 -5.015625 C 1.539062 -5.109375 1.546875 -5.195312 1.546875 -5.28125 C 1.546875 -5.382812 1.609375 -5.566406 1.734375 -5.828125 C 1.867188 -6.085938 1.972656 -6.25 2.046875 -6.3125 C 2.148438 -6.375 2.289062 -6.394531 2.46875 -6.375 C 2.644531 -6.351562 2.765625 -6.3125 2.828125 -6.25 C 2.898438 -6.15625 2.898438 -5.785156 2.828125 -5.140625 C 2.765625 -4.722656 2.738281 -4.453125 2.75 -4.328125 C 2.75 -4.203125 2.78125 -4.097656 2.84375 -4.015625 C 2.925781 -3.953125 2.992188 -3.921875 3.046875 -3.921875 C 3.109375 -3.929688 3.21875 -3.984375 3.375 -4.078125 C 3.613281 -4.210938 3.785156 -4.273438 3.890625 -4.265625 C 3.992188 -4.265625 4.09375 -4.191406 4.1875 -4.046875 C 4.25 -3.941406 4.273438 -3.847656 4.265625 -3.765625 C 4.265625 -3.679688 4.222656 -3.523438 4.140625 -3.296875 C 4.003906 -2.953125 3.890625 -2.5625 3.796875 -2.125 C 3.710938 -1.78125 3.6875 -1.523438 3.71875 -1.359375 C 3.75 -1.191406 3.851562 -1 4.03125 -0.78125 C 4.101562 -0.664062 4.164062 -0.601562 4.21875 -0.59375 C 4.226562 -0.582031 4.257812 -0.585938 4.3125 -0.609375 C 4.363281 -0.628906 4.414062 -0.648438 4.46875 -0.671875 C 4.519531 -0.691406 4.554688 -0.703125 4.578125 -0.703125 C 4.773438 -0.753906 4.90625 -0.796875 4.96875 -0.828125 C 5.457031 -1.085938 5.847656 -1.328125 6.140625 -1.546875 Z M 6.140625 -1.546875 "/></g></g></g><g fill="#1c2120" fill-opacity="1"><g transform="translate(59.493107, 98.948407)"><g><path d="M 2.296875 -5.828125 C 2.117188 -5.773438 1.941406 -5.835938 1.765625 -6.015625 C 1.640625 -6.140625 1.570312 -6.21875 1.5625 -6.25 C 1.5625 -6.289062 1.609375 -6.347656 1.703125 -6.421875 C 1.835938 -6.523438 2.007812 -6.578125 2.21875 -6.578125 C 2.425781 -6.578125 2.566406 -6.523438 2.640625 -6.421875 C 2.722656 -6.316406 2.726562 -6.195312 2.65625 -6.0625 C 2.582031 -5.9375 2.460938 -5.859375 2.296875 -5.828125 Z M 4 -1.234375 C 4.039062 -1.148438 4.039062 -1.070312 4 -1 C 3.957031 -0.9375 3.84375 -0.820312 3.65625 -0.65625 C 3.351562 -0.40625 3 -0.175781 2.59375 0.03125 C 2.28125 0.1875 1.957031 0.25 1.625 0.21875 C 1.300781 0.195312 0.992188 0.109375 0.703125 -0.046875 C 0.410156 -0.210938 0.160156 -0.425781 -0.046875 -0.6875 C -0.347656 -1.039062 -0.4375 -1.515625 -0.3125 -2.109375 C -0.300781 -2.148438 -0.273438 -2.300781 -0.234375 -2.5625 C -0.203125 -2.832031 -0.164062 -3.066406 -0.125 -3.265625 C -0.0820312 -3.460938 -0.0351562 -3.597656 0.015625 -3.671875 C 0.078125 -3.734375 0.171875 -3.773438 0.296875 -3.796875 C 0.429688 -3.828125 0.566406 -3.832031 0.703125 -3.8125 C 0.847656 -3.789062 0.984375 -3.75 1.109375 -3.6875 C 1.242188 -3.625 1.332031 -3.539062 1.375 -3.4375 C 1.425781 -3.34375 1.425781 -3.226562 1.375 -3.09375 C 1.226562 -2.789062 1.15625 -2.578125 1.15625 -2.453125 C 1.15625 -2.335938 1.085938 -2.195312 0.953125 -2.03125 C 0.847656 -1.894531 0.785156 -1.734375 0.765625 -1.546875 C 0.742188 -1.367188 0.773438 -1.253906 0.859375 -1.203125 C 0.921875 -1.171875 0.953125 -1.085938 0.953125 -0.953125 C 0.953125 -0.835938 1.035156 -0.707031 1.203125 -0.5625 C 1.316406 -0.457031 1.40625 -0.394531 1.46875 -0.375 C 1.539062 -0.363281 1.671875 -0.382812 1.859375 -0.4375 C 2.117188 -0.53125 2.453125 -0.722656 2.859375 -1.015625 C 3.179688 -1.253906 3.425781 -1.390625 3.59375 -1.421875 C 3.769531 -1.453125 3.90625 -1.390625 4 -1.234375 Z M 4 -1.234375 "/></g></g></g><g fill="#1c2120" fill-opacity="1"><g transform="translate(66.199646, 98.948407)"><g><path d="M 2.296875 -5.828125 C 2.117188 -5.773438 1.941406 -5.835938 1.765625 -6.015625 C 1.640625 -6.140625 1.570312 -6.21875 1.5625 -6.25 C 1.5625 -6.289062 1.609375 -6.347656 1.703125 -6.421875 C 1.835938 -6.523438 2.007812 -6.578125 2.21875 -6.578125 C 2.425781 -6.578125 2.566406 -6.523438 2.640625 -6.421875 C 2.722656 -6.316406 2.726562 -6.195312 2.65625 -6.0625 C 2.582031 -5.9375 2.460938 -5.859375 2.296875 -5.828125 Z M 4 -1.234375 C 4.039062 -1.148438 4.039062 -1.070312 4 -1 C 3.957031 -0.9375 3.84375 -0.820312 3.65625 -0.65625 C 3.351562 -0.40625 3 -0.175781 2.59375 0.03125 C 2.28125 0.1875 1.957031 0.25 1.625 0.21875 C 1.300781 0.195312 0.992188 0.109375 0.703125 -0.046875 C 0.410156 -0.210938 0.160156 -0.425781 -0.046875 -0.6875 C -0.347656 -1.039062 -0.4375 -1.515625 -0.3125 -2.109375 C -0.300781 -2.148438 -0.273438 -2.300781 -0.234375 -2.5625 C -0.203125 -2.832031 -0.164062 -3.066406 -0.125 -3.265625 C -0.0820312 -3.460938 -0.0351562 -3.597656 0.015625 -3.671875 C 0.078125 -3.734375 0.171875 -3.773438 0.296875 -3.796875 C 0.429688 -3.828125 0.566406 -3.832031 0.703125 -3.8125 C 0.847656 -3.789062 0.984375 -3.75 1.109375 -3.6875 C 1.242188 -3.625 1.332031 -3.539062 1.375 -3.4375 C 1.425781 -3.34375 1.425781 -3.226562 1.375 -3.09375 C 1.226562 -2.789062 1.15625 -2.578125 1.15625 -2.453125 C 1.15625 -2.335938 1.085938 -2.195312 0.953125 -2.03125 C 0.847656 -1.894531 0.785156 -1.734375 0.765625 -1.546875 C 0.742188 -1.367188 0.773438 -1.253906 0.859375 -1.203125 C 0.921875 -1.171875 0.953125 -1.085938 0.953125 -0.953125 C 0.953125 -0.835938 1.035156 -0.707031 1.203125 -0.5625 C 1.316406 -0.457031 1.40625 -0.394531 1.46875 -0.375 C 1.539062 -0.363281 1.671875 -0.382812 1.859375 -0.4375 C 2.117188 -0.53125 2.453125 -0.722656 2.859375 -1.015625 C 3.179688 -1.253906 3.425781 -1.390625 3.59375 -1.421875 C 3.769531 -1.453125 3.90625 -1.390625 4 -1.234375 Z M 4 -1.234375 "/></g></g></g><g fill="#1c2120" fill-opacity="1"><g transform="translate(72.906184, 98.948407)"><g><path d="M 6.140625 -1.171875 C 6.265625 -1.265625 6.367188 -1.300781 6.453125 -1.28125 C 6.535156 -1.269531 6.578125 -1.1875 6.578125 -1.03125 C 6.578125 -1 6.570312 -0.960938 6.5625 -0.921875 C 6.550781 -0.890625 6.535156 -0.859375 6.515625 -0.828125 C 6.503906 -0.804688 6.484375 -0.78125 6.453125 -0.75 C 6.421875 -0.71875 6.390625 -0.6875 6.359375 -0.65625 C 6.335938 -0.632812 6.304688 -0.609375 6.265625 -0.578125 C 6.222656 -0.546875 6.1875 -0.519531 6.15625 -0.5 C 6.132812 -0.488281 6.101562 -0.46875 6.0625 -0.4375 C 6.03125 -0.414062 6.003906 -0.398438 5.984375 -0.390625 C 5.859375 -0.304688 5.734375 -0.238281 5.609375 -0.1875 C 5.585938 -0.175781 5.507812 -0.132812 5.375 -0.0625 L 5.328125 -0.015625 C 5.148438 0.148438 4.898438 0.253906 4.578125 0.296875 C 4.367188 0.316406 4.207031 0.316406 4.09375 0.296875 C 3.988281 0.273438 3.835938 0.222656 3.640625 0.140625 C 3.335938 -0.00390625 3.140625 -0.125 3.046875 -0.21875 C 2.984375 -0.257812 2.929688 -0.273438 2.890625 -0.265625 C 2.847656 -0.265625 2.765625 -0.21875 2.640625 -0.125 C 2.242188 0.15625 1.773438 0.3125 1.234375 0.34375 C 0.703125 0.382812 0.351562 0.28125 0.1875 0.03125 C 0.0820312 -0.132812 0.0351562 -0.445312 0.046875 -0.90625 C 0.0546875 -1.363281 0.113281 -1.691406 0.21875 -1.890625 C 0.3125 -2.066406 0.382812 -2.195312 0.4375 -2.28125 C 0.5 -2.363281 0.554688 -2.4375 0.609375 -2.5 C 0.660156 -2.582031 0.742188 -2.695312 0.859375 -2.84375 C 1.265625 -3.34375 1.582031 -3.679688 1.8125 -3.859375 C 1.988281 -4.003906 2.195312 -4.125 2.4375 -4.21875 C 2.6875 -4.320312 2.941406 -4.390625 3.203125 -4.421875 C 3.472656 -4.453125 3.710938 -4.414062 3.921875 -4.3125 C 4.160156 -4.1875 4.3125 -3.96875 4.375 -3.65625 C 4.4375 -3.34375 4.429688 -3.039062 4.359375 -2.75 C 4.285156 -2.46875 4.1875 -2.195312 4.0625 -1.9375 C 3.945312 -1.695312 3.863281 -1.429688 3.8125 -1.140625 C 3.757812 -0.847656 3.757812 -0.660156 3.8125 -0.578125 C 3.9375 -0.335938 4.335938 -0.320312 5.015625 -0.53125 C 5.046875 -0.53125 5.070312 -0.53125 5.09375 -0.53125 C 5.132812 -0.550781 5.164062 -0.566406 5.1875 -0.578125 C 5.59375 -0.785156 5.910156 -0.984375 6.140625 -1.171875 Z M 3.25 -2.96875 C 3.3125 -3.007812 3.347656 -3.039062 3.359375 -3.0625 C 3.367188 -3.09375 3.351562 -3.128906 3.3125 -3.171875 C 3.226562 -3.253906 3.113281 -3.304688 2.96875 -3.328125 C 2.832031 -3.359375 2.703125 -3.351562 2.578125 -3.3125 C 2.441406 -3.28125 2.234375 -3.148438 1.953125 -2.921875 C 1.679688 -2.703125 1.5 -2.507812 1.40625 -2.34375 C 1.28125 -2.164062 1.171875 -2.003906 1.078125 -1.859375 C 0.972656 -1.703125 0.898438 -1.472656 0.859375 -1.171875 C 0.828125 -0.878906 0.84375 -0.691406 0.90625 -0.609375 C 0.96875 -0.523438 1.109375 -0.484375 1.328125 -0.484375 C 1.546875 -0.484375 1.753906 -0.519531 1.953125 -0.59375 C 2.128906 -0.6875 2.265625 -0.820312 2.359375 -1 C 2.515625 -1.300781 2.640625 -1.546875 2.734375 -1.734375 C 2.898438 -2.015625 2.984375 -2.207031 2.984375 -2.3125 C 2.984375 -2.375 3.007812 -2.4375 3.0625 -2.5 C 3.113281 -2.570312 3.128906 -2.644531 3.109375 -2.71875 C 3.078125 -2.820312 3.125 -2.90625 3.25 -2.96875 Z M 3.25 -2.96875 "/></g></g></g><g fill="#1c2120" fill-opacity="1"><g transform="translate(82.406661, 98.948407)"><g/></g></g><g fill="#1c2120" fill-opacity="1"><g transform="translate(90.292114, 98.948407)"><g><path d="M 4.6875 -8.65625 C 4.769531 -8.570312 4.835938 -8.539062 4.890625 -8.5625 C 4.953125 -8.582031 5.070312 -8.65625 5.25 -8.78125 C 5.519531 -8.976562 5.882812 -9.113281 6.34375 -9.1875 C 6.4375 -9.1875 6.65625 -9.035156 7 -8.734375 C 7.769531 -8.003906 7.914062 -7.175781 7.4375 -6.25 C 7.144531 -5.664062 7.066406 -5.359375 7.203125 -5.328125 C 7.210938 -5.328125 7.226562 -5.335938 7.25 -5.359375 C 7.539062 -5.484375 7.78125 -5.578125 7.96875 -5.640625 C 8.15625 -5.703125 8.304688 -5.734375 8.421875 -5.734375 C 8.546875 -5.734375 8.628906 -5.707031 8.671875 -5.65625 C 8.722656 -5.601562 8.75 -5.519531 8.75 -5.40625 C 8.75 -5.195312 8.632812 -5.003906 8.40625 -4.828125 C 8.175781 -4.648438 7.859375 -4.507812 7.453125 -4.40625 C 7.171875 -4.34375 6.972656 -4.273438 6.859375 -4.203125 C 6.742188 -4.140625 6.632812 -4.035156 6.53125 -3.890625 C 3.78125 0.503906 1.851562 1.570312 0.75 -0.6875 C 0.613281 -0.976562 0.515625 -1.335938 0.453125 -1.765625 C 0.390625 -2.203125 0.398438 -2.515625 0.484375 -2.703125 C 0.628906 -3.066406 0.800781 -3.785156 1 -4.859375 C 1.09375 -5.304688 1.226562 -5.707031 1.40625 -6.0625 C 1.59375 -6.46875 1.6875 -6.695312 1.6875 -6.75 C 1.6875 -6.851562 1.988281 -7.144531 2.59375 -7.625 C 3.207031 -8.113281 3.660156 -8.425781 3.953125 -8.5625 C 4.203125 -8.6875 4.367188 -8.753906 4.453125 -8.765625 C 4.535156 -8.773438 4.613281 -8.738281 4.6875 -8.65625 Z M 4.359375 -6.515625 C 4.242188 -6.671875 4.1875 -6.847656 4.1875 -7.046875 C 4.1875 -7.273438 4.148438 -7.390625 4.078125 -7.390625 C 4.003906 -7.398438 3.835938 -7.300781 3.578125 -7.09375 C 2.816406 -6.5 2.335938 -5.96875 2.140625 -5.5 C 1.960938 -5.101562 1.765625 -4.425781 1.546875 -3.46875 C 1.335938 -2.507812 1.257812 -1.9375 1.3125 -1.75 C 1.34375 -1.539062 1.359375 -1.332031 1.359375 -1.125 C 1.359375 -0.945312 1.421875 -0.785156 1.546875 -0.640625 C 1.679688 -0.503906 1.832031 -0.4375 2 -0.4375 C 2.375 -0.4375 2.9375 -0.804688 3.6875 -1.546875 C 4.4375 -2.273438 5.007812 -3.023438 5.40625 -3.796875 L 5.71875 -4.40625 L 5.203125 -4.90625 C 4.835938 -5.257812 4.628906 -5.578125 4.578125 -5.859375 C 4.523438 -6.148438 4.453125 -6.367188 4.359375 -6.515625 Z M 6.375 -6.078125 C 6.539062 -6.429688 6.648438 -6.769531 6.703125 -7.09375 C 6.765625 -7.425781 6.75 -7.671875 6.65625 -7.828125 C 6.601562 -7.898438 6.460938 -7.9375 6.234375 -7.9375 C 6.003906 -7.9375 5.859375 -7.847656 5.796875 -7.671875 C 5.765625 -7.578125 5.71875 -7.503906 5.65625 -7.453125 C 5.601562 -7.398438 5.554688 -7.375 5.515625 -7.375 C 5.410156 -7.375 5.34375 -7.25 5.3125 -7 C 5.289062 -6.75 5.316406 -6.472656 5.390625 -6.171875 C 5.460938 -5.859375 5.566406 -5.628906 5.703125 -5.484375 C 5.753906 -5.410156 5.796875 -5.363281 5.828125 -5.34375 C 5.867188 -5.332031 5.914062 -5.347656 5.96875 -5.390625 C 6.019531 -5.441406 6.070312 -5.519531 6.125 -5.625 C 6.1875 -5.726562 6.269531 -5.878906 6.375 -6.078125 Z M 6.375 -6.078125 "/></g></g></g><g fill="#1c2120" fill-opacity="1"><g transform="translate(101.445947, 98.948407)"><g><path d="M -0.390625 -1.328125 C -0.285156 -1.492188 -0.0859375 -1.882812 0.203125 -2.5 C 0.492188 -3.125 0.742188 -3.5625 0.953125 -3.8125 C 0.984375 -3.851562 1.019531 -3.894531 1.0625 -3.9375 C 1.144531 -4.019531 1.25 -4.082031 1.375 -4.125 C 1.507812 -4.164062 1.632812 -4.160156 1.75 -4.109375 C 1.78125 -4.078125 1.804688 -4.003906 1.828125 -3.890625 C 1.847656 -3.785156 1.875 -3.734375 1.90625 -3.734375 C 1.945312 -3.722656 2.050781 -3.78125 2.21875 -3.90625 C 2.519531 -4.113281 2.984375 -4.28125 3.609375 -4.40625 C 3.867188 -4.476562 4.035156 -4.503906 4.109375 -4.484375 C 4.191406 -4.472656 4.289062 -4.414062 4.40625 -4.3125 C 4.550781 -4.164062 4.625 -3.988281 4.625 -3.78125 C 4.632812 -3.570312 4.566406 -3.375 4.421875 -3.1875 C 4.316406 -3.03125 4.175781 -2.710938 4 -2.234375 C 3.820312 -1.765625 3.734375 -1.4375 3.734375 -1.25 C 3.734375 -1.125 3.773438 -0.984375 3.859375 -0.828125 C 3.953125 -0.679688 4.0625 -0.554688 4.1875 -0.453125 C 4.3125 -0.359375 4.425781 -0.3125 4.53125 -0.3125 C 4.6875 -0.3125 5.007812 -0.4375 5.5 -0.6875 C 5.988281 -0.945312 6.375 -1.191406 6.65625 -1.421875 C 6.863281 -1.585938 7.015625 -1.664062 7.109375 -1.65625 C 7.203125 -1.644531 7.25 -1.550781 7.25 -1.375 C 7.25 -1.289062 7.210938 -1.195312 7.140625 -1.09375 C 7.078125 -1 6.988281 -0.898438 6.875 -0.796875 C 6.757812 -0.691406 6.625 -0.585938 6.46875 -0.484375 C 6.320312 -0.378906 6.164062 -0.296875 6 -0.234375 C 5.582031 -0.0351562 5.28125 0.109375 5.09375 0.203125 C 4.769531 0.347656 4.484375 0.390625 4.234375 0.328125 C 3.992188 0.265625 3.707031 0.0664062 3.375 -0.265625 C 3.101562 -0.535156 2.941406 -0.71875 2.890625 -0.8125 C 2.847656 -0.914062 2.828125 -1.109375 2.828125 -1.390625 C 2.828125 -1.796875 2.898438 -2.222656 3.046875 -2.671875 C 3.179688 -3.109375 3.234375 -3.347656 3.203125 -3.390625 C 3.160156 -3.421875 2.898438 -3.210938 2.421875 -2.765625 C 1.941406 -2.316406 1.472656 -1.835938 1.015625 -1.328125 C 0.554688 -0.828125 0.328125 -0.539062 0.328125 -0.46875 C 0.328125 -0.40625 0.285156 -0.332031 0.203125 -0.25 C 0.128906 -0.175781 0.0351562 -0.113281 -0.078125 -0.0625 C -0.203125 -0.0195312 -0.304688 -0.0078125 -0.390625 -0.03125 C -0.535156 -0.0507812 -0.640625 -0.164062 -0.703125 -0.375 C -0.742188 -0.507812 -0.75 -0.628906 -0.71875 -0.734375 C -0.6875 -0.847656 -0.578125 -1.046875 -0.390625 -1.328125 Z M -0.390625 -1.328125 "/></g></g></g><g fill="#1c2120" fill-opacity="1"><g transform="translate(111.689236, 98.948407)"><g><path d="M 5.609375 -1.84375 C 5.703125 -1.789062 5.75 -1.675781 5.75 -1.5 C 5.757812 -1.300781 5.648438 -1.117188 5.421875 -0.953125 C 5.335938 -0.890625 5.238281 -0.832031 5.125 -0.78125 C 5.113281 -0.769531 5.09375 -0.753906 5.0625 -0.734375 C 4.976562 -0.679688 4.898438 -0.65625 4.828125 -0.65625 C 4.640625 -0.644531 4.457031 -0.71875 4.28125 -0.875 C 4.238281 -0.914062 4.191406 -0.984375 4.140625 -1.078125 L 4.109375 -1.125 C 4.046875 -1.226562 3.988281 -1.289062 3.9375 -1.3125 C 3.882812 -1.34375 3.820312 -1.335938 3.75 -1.296875 C 3.65625 -1.242188 3.546875 -1.085938 3.421875 -0.828125 C 3.367188 -0.691406 3.320312 -0.597656 3.28125 -0.546875 C 3.15625 -0.367188 3.050781 -0.265625 2.96875 -0.234375 C 2.851562 -0.179688 2.695312 -0.09375 2.5 0.03125 C 2.25 0.175781 2.015625 0.253906 1.796875 0.265625 C 1.546875 0.285156 1.363281 0.3125 1.25 0.34375 C 1.21875 0.351562 1.1875 0.359375 1.15625 0.359375 C 1.082031 0.359375 1.019531 0.34375 0.96875 0.3125 C 0.894531 0.28125 0.785156 0.195312 0.640625 0.0625 C 0.472656 -0.0820312 0.359375 -0.210938 0.296875 -0.328125 C 0.242188 -0.441406 0.191406 -0.640625 0.140625 -0.921875 C 0.0351562 -1.378906 0.0078125 -1.75 0.0625 -2.03125 C 0.113281 -2.3125 0.253906 -2.632812 0.484375 -3 C 0.785156 -3.476562 1.066406 -3.820312 1.328125 -4.03125 C 1.585938 -4.238281 1.910156 -4.390625 2.296875 -4.484375 C 2.484375 -4.515625 2.644531 -4.582031 2.78125 -4.6875 C 3.007812 -4.832031 3.207031 -4.882812 3.375 -4.84375 C 3.539062 -4.8125 3.734375 -4.679688 3.953125 -4.453125 C 4.066406 -4.328125 4.148438 -4.222656 4.203125 -4.140625 C 4.253906 -4.066406 4.289062 -3.992188 4.3125 -3.921875 C 4.332031 -3.847656 4.34375 -3.742188 4.34375 -3.609375 C 4.34375 -3.046875 4.359375 -2.609375 4.390625 -2.296875 C 4.410156 -2.109375 4.453125 -1.960938 4.515625 -1.859375 C 4.585938 -1.765625 4.707031 -1.644531 4.875 -1.5 L 4.90625 -1.53125 C 5.019531 -1.601562 5.101562 -1.660156 5.15625 -1.703125 C 5.34375 -1.847656 5.492188 -1.894531 5.609375 -1.84375 Z M 3.390625 -3.5 C 3.390625 -3.738281 3.363281 -3.875 3.3125 -3.90625 C 3.300781 -3.894531 3.289062 -3.878906 3.28125 -3.859375 C 3.25 -3.796875 3.253906 -3.664062 3.296875 -3.46875 C 3.316406 -3.320312 3.34375 -3.226562 3.375 -3.1875 C 3.382812 -3.238281 3.390625 -3.34375 3.390625 -3.5 Z M 3.125 -2.015625 C 3.144531 -2.160156 3.140625 -2.265625 3.109375 -2.328125 C 3.078125 -2.390625 3 -2.488281 2.875 -2.625 C 2.65625 -2.832031 2.546875 -3.003906 2.546875 -3.140625 C 2.546875 -3.222656 2.515625 -3.328125 2.453125 -3.453125 C 2.398438 -3.578125 2.347656 -3.65625 2.296875 -3.6875 C 2.242188 -3.71875 2.203125 -3.734375 2.171875 -3.734375 C 2.148438 -3.734375 2.128906 -3.726562 2.109375 -3.71875 C 2.046875 -3.6875 1.914062 -3.570312 1.71875 -3.375 C 1.539062 -3.195312 1.375 -2.972656 1.21875 -2.703125 C 1.070312 -2.429688 0.96875 -2.179688 0.90625 -1.953125 C 0.832031 -1.722656 0.816406 -1.554688 0.859375 -1.453125 C 0.910156 -1.359375 0.941406 -1.195312 0.953125 -0.96875 C 0.972656 -0.789062 1 -0.660156 1.03125 -0.578125 C 1.0625 -0.515625 1.109375 -0.46875 1.171875 -0.4375 C 1.242188 -0.40625 1.359375 -0.390625 1.515625 -0.390625 C 1.585938 -0.390625 1.648438 -0.394531 1.703125 -0.40625 C 1.753906 -0.40625 1.804688 -0.410156 1.859375 -0.421875 C 1.898438 -0.429688 1.9375 -0.445312 1.96875 -0.46875 C 2.019531 -0.5 2.066406 -0.53125 2.109375 -0.5625 C 2.148438 -0.59375 2.207031 -0.632812 2.28125 -0.6875 C 2.519531 -0.875 2.65625 -1.023438 2.6875 -1.140625 C 2.726562 -1.265625 2.804688 -1.394531 2.921875 -1.53125 C 3.015625 -1.632812 3.082031 -1.796875 3.125 -2.015625 Z M 3.125 -2.015625 "/></g></g></g><g fill="#1c2120" fill-opacity="1"><g transform="translate(120.408562, 98.948407)"><g><path d="M 7.296875 -1.3125 C 7.273438 -1.207031 7.210938 -1.09375 7.109375 -0.96875 C 6.816406 -0.625 6.453125 -0.359375 6.015625 -0.171875 C 5.585938 0.00390625 5.144531 0.078125 4.6875 0.046875 C 4.582031 0.0351562 4.5 0.0234375 4.4375 0.015625 C 4.375 -0.015625 4.273438 -0.0703125 4.140625 -0.15625 C 3.867188 -0.34375 3.269531 -0.765625 2.34375 -1.421875 C 2.207031 -1.503906 2.101562 -1.539062 2.03125 -1.53125 C 1.925781 -1.519531 1.832031 -1.453125 1.75 -1.328125 C 1.582031 -1.066406 1.484375 -0.773438 1.453125 -0.453125 C 1.429688 -0.335938 1.414062 -0.257812 1.40625 -0.21875 C 1.351562 -0.132812 1.273438 -0.078125 1.171875 -0.046875 C 1.066406 -0.0234375 0.96875 -0.0351562 0.875 -0.078125 C 0.71875 -0.140625 0.585938 -0.285156 0.484375 -0.515625 C 0.441406 -0.597656 0.414062 -0.679688 0.40625 -0.765625 C 0.40625 -0.859375 0.410156 -0.988281 0.421875 -1.15625 C 0.441406 -1.332031 0.453125 -1.429688 0.453125 -1.453125 C 0.460938 -1.535156 0.484375 -1.644531 0.515625 -1.78125 C 0.554688 -1.925781 0.578125 -2.035156 0.578125 -2.109375 C 0.585938 -2.222656 0.664062 -2.5 0.8125 -2.9375 C 0.957031 -3.382812 1.078125 -3.703125 1.171875 -3.890625 C 1.410156 -4.378906 1.566406 -4.851562 1.640625 -5.3125 C 1.691406 -5.65625 2.0625 -6.5625 2.75 -8.03125 C 2.832031 -8.195312 2.925781 -8.332031 3.03125 -8.4375 C 3.132812 -8.539062 3.273438 -8.644531 3.453125 -8.75 C 3.765625 -8.925781 4.007812 -8.984375 4.1875 -8.921875 C 4.289062 -8.878906 4.375 -8.804688 4.4375 -8.703125 C 4.5 -8.609375 4.535156 -8.503906 4.546875 -8.390625 C 4.554688 -8.273438 4.550781 -8.160156 4.53125 -8.046875 C 4.488281 -7.703125 4.332031 -7.210938 4.0625 -6.578125 C 3.625 -5.597656 3.332031 -4.953125 3.1875 -4.640625 C 3.269531 -4.628906 3.351562 -4.617188 3.4375 -4.609375 C 3.519531 -4.609375 3.617188 -4.613281 3.734375 -4.625 C 3.859375 -4.632812 3.941406 -4.640625 3.984375 -4.640625 C 4.316406 -4.648438 4.5625 -4.570312 4.71875 -4.40625 C 4.945312 -4.144531 4.9375 -3.765625 4.6875 -3.265625 C 4.382812 -2.671875 3.960938 -2.132812 3.421875 -1.65625 C 3.484375 -1.601562 3.554688 -1.546875 3.640625 -1.484375 C 3.722656 -1.429688 3.804688 -1.375 3.890625 -1.3125 C 3.984375 -1.25 4.0625 -1.195312 4.125 -1.15625 C 4.425781 -0.9375 4.660156 -0.8125 4.828125 -0.78125 C 5.160156 -0.695312 5.523438 -0.757812 5.921875 -0.96875 C 6.046875 -1.03125 6.210938 -1.128906 6.421875 -1.265625 C 6.628906 -1.398438 6.785156 -1.492188 6.890625 -1.546875 C 6.960938 -1.585938 7.019531 -1.609375 7.0625 -1.609375 C 7.132812 -1.609375 7.191406 -1.578125 7.234375 -1.515625 C 7.273438 -1.453125 7.296875 -1.390625 7.296875 -1.328125 C 7.296875 -1.328125 7.296875 -1.320312 7.296875 -1.3125 Z M 2.984375 -2.671875 C 3.160156 -2.828125 3.226562 -2.960938 3.1875 -3.078125 C 3.144531 -3.203125 3.070312 -3.253906 2.96875 -3.234375 C 2.863281 -3.210938 2.75 -3.128906 2.625 -2.984375 C 2.4375 -2.742188 2.390625 -2.582031 2.484375 -2.5 C 2.585938 -2.414062 2.753906 -2.472656 2.984375 -2.671875 Z M 2.984375 -2.671875 "/></g></g></g><g fill="#1c2120" fill-opacity="1"><g transform="translate(130.076771, 98.948407)"><g><path d="M 6.15625 -1.46875 C 6.289062 -1.59375 6.410156 -1.640625 6.515625 -1.609375 C 6.617188 -1.585938 6.671875 -1.488281 6.671875 -1.3125 C 6.671875 -1.257812 6.660156 -1.207031 6.640625 -1.15625 C 6.628906 -1.113281 6.609375 -1.066406 6.578125 -1.015625 C 6.546875 -0.972656 6.507812 -0.9375 6.46875 -0.90625 C 6.4375 -0.875 6.394531 -0.835938 6.34375 -0.796875 C 6.289062 -0.753906 6.25 -0.71875 6.21875 -0.6875 C 6.1875 -0.664062 6.140625 -0.632812 6.078125 -0.59375 C 6.023438 -0.5625 5.988281 -0.539062 5.96875 -0.53125 C 5.957031 -0.53125 5.945312 -0.523438 5.9375 -0.515625 C 5.925781 -0.515625 5.921875 -0.507812 5.921875 -0.5 C 5.898438 -0.488281 5.875 -0.46875 5.84375 -0.4375 C 5.8125 -0.414062 5.789062 -0.40625 5.78125 -0.40625 C 5.5625 -0.25 5.363281 -0.144531 5.1875 -0.09375 C 5.019531 -0.0390625 4.804688 -0.00390625 4.546875 0.015625 C 3.890625 0.0859375 3.398438 -0.0546875 3.078125 -0.421875 C 2.765625 -0.796875 2.539062 -1.476562 2.40625 -2.46875 C 2.363281 -2.78125 2.320312 -2.9375 2.28125 -2.9375 C 2.238281 -2.9375 2.015625 -2.757812 1.609375 -2.40625 C 1.367188 -2.1875 1.195312 -2.007812 1.09375 -1.875 C 1.039062 -1.820312 0.992188 -1.753906 0.953125 -1.671875 C 0.921875 -1.585938 0.882812 -1.488281 0.84375 -1.375 C 0.800781 -1.257812 0.773438 -1.1875 0.765625 -1.15625 C 0.742188 -1.101562 0.695312 -0.992188 0.625 -0.828125 L 0.484375 -0.484375 C 0.453125 -0.421875 0.429688 -0.320312 0.421875 -0.1875 C 0.421875 -0.0625 0.398438 0.0351562 0.359375 0.109375 C 0.316406 0.191406 0.238281 0.242188 0.125 0.265625 C -0.101562 0.296875 -0.296875 0.195312 -0.453125 -0.03125 C -0.554688 -0.175781 -0.609375 -0.28125 -0.609375 -0.34375 C -0.617188 -0.414062 -0.585938 -0.550781 -0.515625 -0.75 C -0.492188 -0.789062 -0.472656 -0.828125 -0.453125 -0.859375 C -0.441406 -0.890625 -0.421875 -0.945312 -0.390625 -1.03125 C -0.367188 -1.125 -0.351562 -1.179688 -0.34375 -1.203125 C -0.332031 -1.234375 -0.3125 -1.285156 -0.28125 -1.359375 C -0.257812 -1.441406 -0.238281 -1.5 -0.21875 -1.53125 C -0.207031 -1.570312 -0.1875 -1.625 -0.15625 -1.6875 C -0.132812 -1.75 -0.113281 -1.800781 -0.09375 -1.84375 C -0.0703125 -1.894531 -0.046875 -1.945312 -0.015625 -2 C 0.015625 -2.0625 0.046875 -2.117188 0.078125 -2.171875 C 0.203125 -2.390625 0.289062 -2.722656 0.34375 -3.171875 C 0.40625 -3.628906 0.445312 -3.890625 0.46875 -3.953125 C 0.582031 -4.410156 0.796875 -5.0625 1.109375 -5.90625 C 1.171875 -6.0625 1.238281 -6.300781 1.3125 -6.625 C 1.382812 -6.945312 1.457031 -7.242188 1.53125 -7.515625 C 1.613281 -7.796875 1.710938 -8.082031 1.828125 -8.375 C 1.941406 -8.675781 2.097656 -8.925781 2.296875 -9.125 C 2.492188 -9.332031 2.71875 -9.46875 2.96875 -9.53125 C 3.1875 -9.582031 3.363281 -9.570312 3.5 -9.5 C 3.644531 -9.425781 3.738281 -9.316406 3.78125 -9.171875 C 3.832031 -9.023438 3.859375 -8.847656 3.859375 -8.640625 C 3.867188 -8.441406 3.863281 -8.257812 3.84375 -8.09375 C 3.820312 -7.9375 3.789062 -7.785156 3.75 -7.640625 C 3.675781 -7.410156 3.566406 -7.140625 3.421875 -6.828125 C 3.265625 -6.515625 3.15625 -6.289062 3.09375 -6.15625 C 3.007812 -5.90625 2.882812 -5.65625 2.71875 -5.40625 C 2.644531 -5.289062 2.53125 -5.109375 2.375 -4.859375 C 2.226562 -4.609375 2.109375 -4.425781 2.015625 -4.3125 C 1.878906 -4.125 1.734375 -3.945312 1.578125 -3.78125 C 1.554688 -3.757812 1.515625 -3.722656 1.453125 -3.671875 C 1.398438 -3.617188 1.351562 -3.566406 1.3125 -3.515625 C 1.269531 -3.460938 1.242188 -3.414062 1.234375 -3.375 C 1.222656 -3.351562 1.222656 -3.328125 1.234375 -3.296875 C 1.253906 -3.273438 1.273438 -3.269531 1.296875 -3.28125 C 1.304688 -3.28125 1.320312 -3.285156 1.34375 -3.296875 C 1.394531 -3.335938 1.460938 -3.398438 1.546875 -3.484375 C 1.640625 -3.578125 1.722656 -3.648438 1.796875 -3.703125 C 1.878906 -3.753906 1.96875 -3.785156 2.0625 -3.796875 C 2.113281 -3.804688 2.164062 -3.8125 2.21875 -3.8125 C 2.488281 -3.84375 2.707031 -3.816406 2.875 -3.734375 C 3.050781 -3.648438 3.195312 -3.503906 3.3125 -3.296875 C 3.414062 -3.066406 3.46875 -2.804688 3.46875 -2.515625 C 3.46875 -2.265625 3.507812 -1.96875 3.59375 -1.625 C 3.664062 -1.28125 3.75 -1.019531 3.84375 -0.84375 C 3.90625 -0.738281 3.96875 -0.675781 4.03125 -0.65625 C 4.101562 -0.644531 4.25 -0.648438 4.46875 -0.671875 C 4.726562 -0.703125 4.941406 -0.75 5.109375 -0.8125 C 5.546875 -1.039062 5.894531 -1.257812 6.15625 -1.46875 Z M 2.421875 -7.328125 C 2.410156 -7.304688 2.390625 -7.269531 2.359375 -7.21875 C 2.335938 -7.164062 2.316406 -7.117188 2.296875 -7.078125 C 2.285156 -7.035156 2.269531 -7 2.25 -6.96875 C 2.101562 -6.675781 1.988281 -6.367188 1.90625 -6.046875 C 1.875 -5.921875 1.835938 -5.796875 1.796875 -5.671875 C 1.753906 -5.546875 1.695312 -5.394531 1.625 -5.21875 C 1.5625 -5.050781 1.515625 -4.9375 1.484375 -4.875 C 1.441406 -4.769531 1.445312 -4.703125 1.5 -4.671875 C 1.53125 -4.648438 1.566406 -4.660156 1.609375 -4.703125 C 1.710938 -4.804688 1.796875 -4.921875 1.859375 -5.046875 C 1.929688 -5.171875 2 -5.316406 2.0625 -5.484375 C 2.132812 -5.648438 2.195312 -5.78125 2.25 -5.875 C 2.425781 -6.207031 2.582031 -6.628906 2.71875 -7.140625 C 2.726562 -7.179688 2.75 -7.242188 2.78125 -7.328125 C 2.820312 -7.410156 2.851562 -7.484375 2.875 -7.546875 C 2.90625 -7.617188 2.925781 -7.695312 2.9375 -7.78125 C 2.945312 -7.863281 2.929688 -7.914062 2.890625 -7.9375 C 2.847656 -7.976562 2.789062 -7.960938 2.71875 -7.890625 C 2.664062 -7.835938 2.597656 -7.71875 2.515625 -7.53125 C 2.492188 -7.46875 2.460938 -7.398438 2.421875 -7.328125 Z M 1.3125 -3.28125 Z M 1.3125 -3.28125 "/></g></g></g><g fill="#1c2120" fill-opacity="1"><g transform="translate(139.773731, 98.948407)"><g><path d="M 2.296875 -5.828125 C 2.117188 -5.773438 1.941406 -5.835938 1.765625 -6.015625 C 1.640625 -6.140625 1.570312 -6.21875 1.5625 -6.25 C 1.5625 -6.289062 1.609375 -6.347656 1.703125 -6.421875 C 1.835938 -6.523438 2.007812 -6.578125 2.21875 -6.578125 C 2.425781 -6.578125 2.566406 -6.523438 2.640625 -6.421875 C 2.722656 -6.316406 2.726562 -6.195312 2.65625 -6.0625 C 2.582031 -5.9375 2.460938 -5.859375 2.296875 -5.828125 Z M 4 -1.234375 C 4.039062 -1.148438 4.039062 -1.070312 4 -1 C 3.957031 -0.9375 3.84375 -0.820312 3.65625 -0.65625 C 3.351562 -0.40625 3 -0.175781 2.59375 0.03125 C 2.28125 0.1875 1.957031 0.25 1.625 0.21875 C 1.300781 0.195312 0.992188 0.109375 0.703125 -0.046875 C 0.410156 -0.210938 0.160156 -0.425781 -0.046875 -0.6875 C -0.347656 -1.039062 -0.4375 -1.515625 -0.3125 -2.109375 C -0.300781 -2.148438 -0.273438 -2.300781 -0.234375 -2.5625 C -0.203125 -2.832031 -0.164062 -3.066406 -0.125 -3.265625 C -0.0820312 -3.460938 -0.0351562 -3.597656 0.015625 -3.671875 C 0.078125 -3.734375 0.171875 -3.773438 0.296875 -3.796875 C 0.429688 -3.828125 0.566406 -3.832031 0.703125 -3.8125 C 0.847656 -3.789062 0.984375 -3.75 1.109375 -3.6875 C 1.242188 -3.625 1.332031 -3.539062 1.375 -3.4375 C 1.425781 -3.34375 1.425781 -3.226562 1.375 -3.09375 C 1.226562 -2.789062 1.15625 -2.578125 1.15625 -2.453125 C 1.15625 -2.335938 1.085938 -2.195312 0.953125 -2.03125 C 0.847656 -1.894531 0.785156 -1.734375 0.765625 -1.546875 C 0.742188 -1.367188 0.773438 -1.253906 0.859375 -1.203125 C 0.921875 -1.171875 0.953125 -1.085938 0.953125 -0.953125 C 0.953125 -0.835938 1.035156 -0.707031 1.203125 -0.5625 C 1.316406 -0.457031 1.40625 -0.394531 1.46875 -0.375 C 1.539062 -0.363281 1.671875 -0.382812 1.859375 -0.4375 C 2.117188 -0.53125 2.453125 -0.722656 2.859375 -1.015625 C 3.179688 -1.253906 3.425781 -1.390625 3.59375 -1.421875 C 3.769531 -1.453125 3.90625 -1.390625 4 -1.234375 Z M 4 -1.234375 "/></g></g></g><g fill="#1c2120" fill-opacity="1"><g transform="translate(146.480269, 98.948407)"><g><path d="M -0.390625 -1.328125 C -0.285156 -1.492188 -0.0859375 -1.882812 0.203125 -2.5 C 0.492188 -3.125 0.742188 -3.5625 0.953125 -3.8125 C 0.984375 -3.851562 1.019531 -3.894531 1.0625 -3.9375 C 1.144531 -4.019531 1.25 -4.082031 1.375 -4.125 C 1.507812 -4.164062 1.632812 -4.160156 1.75 -4.109375 C 1.78125 -4.078125 1.804688 -4.003906 1.828125 -3.890625 C 1.847656 -3.785156 1.875 -3.734375 1.90625 -3.734375 C 1.945312 -3.722656 2.050781 -3.78125 2.21875 -3.90625 C 2.519531 -4.113281 2.984375 -4.28125 3.609375 -4.40625 C 3.867188 -4.476562 4.035156 -4.503906 4.109375 -4.484375 C 4.191406 -4.472656 4.289062 -4.414062 4.40625 -4.3125 C 4.550781 -4.164062 4.625 -3.988281 4.625 -3.78125 C 4.632812 -3.570312 4.566406 -3.375 4.421875 -3.1875 C 4.316406 -3.03125 4.175781 -2.710938 4 -2.234375 C 3.820312 -1.765625 3.734375 -1.4375 3.734375 -1.25 C 3.734375 -1.125 3.773438 -0.984375 3.859375 -0.828125 C 3.953125 -0.679688 4.0625 -0.554688 4.1875 -0.453125 C 4.3125 -0.359375 4.425781 -0.3125 4.53125 -0.3125 C 4.6875 -0.3125 5.007812 -0.4375 5.5 -0.6875 C 5.988281 -0.945312 6.375 -1.191406 6.65625 -1.421875 C 6.863281 -1.585938 7.015625 -1.664062 7.109375 -1.65625 C 7.203125 -1.644531 7.25 -1.550781 7.25 -1.375 C 7.25 -1.289062 7.210938 -1.195312 7.140625 -1.09375 C 7.078125 -1 6.988281 -0.898438 6.875 -0.796875 C 6.757812 -0.691406 6.625 -0.585938 6.46875 -0.484375 C 6.320312 -0.378906 6.164062 -0.296875 6 -0.234375 C 5.582031 -0.0351562 5.28125 0.109375 5.09375 0.203125 C 4.769531 0.347656 4.484375 0.390625 4.234375 0.328125 C 3.992188 0.265625 3.707031 0.0664062 3.375 -0.265625 C 3.101562 -0.535156 2.941406 -0.71875 2.890625 -0.8125 C 2.847656 -0.914062 2.828125 -1.109375 2.828125 -1.390625 C 2.828125 -1.796875 2.898438 -2.222656 3.046875 -2.671875 C 3.179688 -3.109375 3.234375 -3.347656 3.203125 -3.390625 C 3.160156 -3.421875 2.898438 -3.210938 2.421875 -2.765625 C 1.941406 -2.316406 1.472656 -1.835938 1.015625 -1.328125 C 0.554688 -0.828125 0.328125 -0.539062 0.328125 -0.46875 C 0.328125 -0.40625 0.285156 -0.332031 0.203125 -0.25 C 0.128906 -0.175781 0.0351562 -0.113281 -0.078125 -0.0625 C -0.203125 -0.0195312 -0.304688 -0.0078125 -0.390625 -0.03125 C -0.535156 -0.0507812 -0.640625 -0.164062 -0.703125 -0.375 C -0.742188 -0.507812 -0.75 -0.628906 -0.71875 -0.734375 C -0.6875 -0.847656 -0.578125 -1.046875 -0.390625 -1.328125 Z M -0.390625 -1.328125 "/></g></g></g><g fill="#1c2120" fill-opacity="1"><g transform="translate(156.723559, 98.948407)"><g><path d="M 6.140625 -1.171875 C 6.265625 -1.265625 6.367188 -1.300781 6.453125 -1.28125 C 6.535156 -1.269531 6.578125 -1.1875 6.578125 -1.03125 C 6.578125 -1 6.570312 -0.960938 6.5625 -0.921875 C 6.550781 -0.890625 6.535156 -0.859375 6.515625 -0.828125 C 6.503906 -0.804688 6.484375 -0.78125 6.453125 -0.75 C 6.421875 -0.71875 6.390625 -0.6875 6.359375 -0.65625 C 6.335938 -0.632812 6.304688 -0.609375 6.265625 -0.578125 C 6.222656 -0.546875 6.1875 -0.519531 6.15625 -0.5 C 6.132812 -0.488281 6.101562 -0.46875 6.0625 -0.4375 C 6.03125 -0.414062 6.003906 -0.398438 5.984375 -0.390625 C 5.859375 -0.304688 5.734375 -0.238281 5.609375 -0.1875 C 5.585938 -0.175781 5.507812 -0.132812 5.375 -0.0625 L 5.328125 -0.015625 C 5.148438 0.148438 4.898438 0.253906 4.578125 0.296875 C 4.367188 0.316406 4.207031 0.316406 4.09375 0.296875 C 3.988281 0.273438 3.835938 0.222656 3.640625 0.140625 C 3.335938 -0.00390625 3.140625 -0.125 3.046875 -0.21875 C 2.984375 -0.257812 2.929688 -0.273438 2.890625 -0.265625 C 2.847656 -0.265625 2.765625 -0.21875 2.640625 -0.125 C 2.242188 0.15625 1.773438 0.3125 1.234375 0.34375 C 0.703125 0.382812 0.351562 0.28125 0.1875 0.03125 C 0.0820312 -0.132812 0.0351562 -0.445312 0.046875 -0.90625 C 0.0546875 -1.363281 0.113281 -1.691406 0.21875 -1.890625 C 0.3125 -2.066406 0.382812 -2.195312 0.4375 -2.28125 C 0.5 -2.363281 0.554688 -2.4375 0.609375 -2.5 C 0.660156 -2.582031 0.742188 -2.695312 0.859375 -2.84375 C 1.265625 -3.34375 1.582031 -3.679688 1.8125 -3.859375 C 1.988281 -4.003906 2.195312 -4.125 2.4375 -4.21875 C 2.6875 -4.320312 2.941406 -4.390625 3.203125 -4.421875 C 3.472656 -4.453125 3.710938 -4.414062 3.921875 -4.3125 C 4.160156 -4.1875 4.3125 -3.96875 4.375 -3.65625 C 4.4375 -3.34375 4.429688 -3.039062 4.359375 -2.75 C 4.285156 -2.46875 4.1875 -2.195312 4.0625 -1.9375 C 3.945312 -1.695312 3.863281 -1.429688 3.8125 -1.140625 C 3.757812 -0.847656 3.757812 -0.660156 3.8125 -0.578125 C 3.9375 -0.335938 4.335938 -0.320312 5.015625 -0.53125 C 5.046875 -0.53125 5.070312 -0.53125 5.09375 -0.53125 C 5.132812 -0.550781 5.164062 -0.566406 5.1875 -0.578125 C 5.59375 -0.785156 5.910156 -0.984375 6.140625 -1.171875 Z M 3.25 -2.96875 C 3.3125 -3.007812 3.347656 -3.039062 3.359375 -3.0625 C 3.367188 -3.09375 3.351562 -3.128906 3.3125 -3.171875 C 3.226562 -3.253906 3.113281 -3.304688 2.96875 -3.328125 C 2.832031 -3.359375 2.703125 -3.351562 2.578125 -3.3125 C 2.441406 -3.28125 2.234375 -3.148438 1.953125 -2.921875 C 1.679688 -2.703125 1.5 -2.507812 1.40625 -2.34375 C 1.28125 -2.164062 1.171875 -2.003906 1.078125 -1.859375 C 0.972656 -1.703125 0.898438 -1.472656 0.859375 -1.171875 C 0.828125 -0.878906 0.84375 -0.691406 0.90625 -0.609375 C 0.96875 -0.523438 1.109375 -0.484375 1.328125 -0.484375 C 1.546875 -0.484375 1.753906 -0.519531 1.953125 -0.59375 C 2.128906 -0.6875 2.265625 -0.820312 2.359375 -1 C 2.515625 -1.300781 2.640625 -1.546875 2.734375 -1.734375 C 2.898438 -2.015625 2.984375 -2.207031 2.984375 -2.3125 C 2.984375 -2.375 3.007812 -2.4375 3.0625 -2.5 C 3.113281 -2.570312 3.128906 -2.644531 3.109375 -2.71875 C 3.078125 -2.820312 3.125 -2.90625 3.25 -2.96875 Z M 3.25 -2.96875 "/></g></g></g></svg>