<svg xmlns="http://www.w3.org/2000/svg" xmlns:xlink="http://www.w3.org/1999/xlink" width="250" zoomAndPan="magnify" viewBox="0 0 187.5 187.499992" height="250" preserveAspectRatio="xMidYMid meet" version="1.0"><defs><g/><clipPath id="2bf997dc24"><path d="M 113.488281 62 L 147.804688 62 L 147.804688 73.761719 L 113.488281 73.761719 Z M 113.488281 62 " clip-rule="nonzero"/></clipPath><clipPath id="5f12f08be8"><path d="M 122.023438 68.492188 C 138.375 68.792969 138.601562 69.09375 138.601562 69.394531 C 138.601562 69.691406 138.375 70.144531 137.851562 70.441406 C 135.976562 71.417969 123.523438 71.191406 121.5 70.59375 C 120.976562 70.441406 120.675781 70.292969 120.601562 69.992188 C 120.523438 69.691406 120.523438 69.242188 120.824219 68.941406 C 121.875 67.96875 130.199219 67.066406 131.699219 67.59375 C 132.226562 67.742188 132.523438 68.191406 132.523438 68.492188 C 132.523438 68.867188 132.300781 69.316406 131.773438 69.617188 C 130.5 70.367188 124.050781 71.117188 123.148438 70.292969 C 122.773438 69.917969 122.851562 68.867188 123.148438 68.566406 C 123.449219 68.191406 124.351562 68.417969 125.25 68.417969 C 127.125 68.34375 132.148438 67.894531 133.726562 68.566406 C 134.476562 68.941406 135.226562 69.691406 135.074219 70.066406 C 134.773438 70.894531 126.898438 71.269531 125.550781 70.667969 C 125.101562 70.441406 124.726562 69.917969 124.800781 69.691406 C 125.023438 69.167969 129.074219 68.566406 130.273438 68.867188 C 130.949219 69.019531 131.550781 69.394531 131.625 69.769531 C 131.699219 70.144531 131.398438 70.667969 130.875 70.96875 C 129.75 71.566406 125.773438 70.667969 124.050781 70.894531 C 122.925781 71.042969 122.101562 71.867188 121.425781 71.71875 C 120.976562 71.644531 120.523438 71.269531 120.449219 70.96875 C 120.375 70.59375 120.675781 69.917969 121.050781 69.617188 C 121.5 69.242188 122.925781 69.617188 123.375 69.242188 C 123.75 68.941406 123.601562 68.269531 123.976562 68.042969 C 124.648438 67.667969 126.300781 68.71875 127.726562 68.71875 C 129.75 68.71875 132.300781 68.34375 134.925781 67.519531 C 138.300781 66.46875 144.226562 62.269531 146.175781 62.269531 C 146.851562 62.269531 147.449219 62.644531 147.601562 62.941406 C 147.675781 63.167969 147.523438 63.617188 147.148438 63.917969 C 146.398438 64.519531 143.550781 64.519531 141.898438 65.117188 C 140.398438 65.644531 138.226562 67.59375 137.699219 67.292969 C 137.476562 67.144531 137.324219 66.46875 137.550781 66.167969 C 138.226562 65.417969 145.273438 65.34375 145.949219 66.167969 C 146.25 66.542969 146.101562 67.367188 145.648438 67.742188 C 144.824219 68.492188 141.449219 67.742188 139.574219 68.269531 C 137.851562 68.71875 134.851562 70.144531 134.925781 70.441406 C 135 70.742188 139.949219 69.242188 140.625 69.769531 C 140.925781 69.992188 141.074219 70.667969 140.851562 70.96875 C 140.25 71.644531 135 71.417969 133.800781 70.816406 C 133.273438 70.519531 132.75 69.917969 132.898438 69.691406 C 133.199219 69.09375 139.800781 69.394531 141.074219 70.066406 C 141.601562 70.367188 141.976562 70.894531 141.898438 71.269531 C 141.824219 71.644531 141.375 72.019531 140.773438 72.242188 C 139.648438 72.617188 136.050781 72.394531 135 71.792969 C 134.476562 71.492188 134.101562 70.96875 134.101562 70.59375 C 134.101562 70.21875 134.699219 69.691406 135.226562 69.542969 C 135.976562 69.316406 138.074219 69.394531 138.523438 69.917969 C 138.824219 70.21875 138.824219 71.042969 138.675781 71.417969 C 138.523438 71.71875 138.226562 71.792969 137.699219 71.941406 C 136.050781 72.316406 130.800781 71.34375 127.125 71.492188 C 123.148438 71.644531 116.175781 73.742188 114.601562 72.917969 C 114 72.617188 113.625 72.019531 113.851562 71.566406 C 114.449219 70.292969 125.851562 68.191406 127.875 68.492188 C 128.476562 68.566406 128.925781 68.867188 129 69.167969 C 129.074219 69.46875 128.851562 70.144531 128.398438 70.367188 C 127.351562 70.96875 122.324219 70.441406 121.199219 69.769531 C 120.675781 69.46875 120.375 68.941406 120.449219 68.566406 C 120.523438 68.191406 120.898438 67.894531 121.5 67.667969 C 123.226562 66.992188 129.601562 67.667969 133.050781 67.21875 C 135.898438 66.84375 139.5 65.042969 140.699219 65.417969 C 141.226562 65.566406 141.523438 66.09375 141.523438 66.394531 C 141.523438 66.691406 141.300781 66.992188 140.851562 67.21875 C 139.050781 68.042969 125.851562 68.492188 125.101562 67.367188 C 124.875 66.992188 125.101562 66.316406 125.625 66.019531 C 127.425781 64.894531 141 66.316406 143.101562 67.21875 C 143.625 67.441406 143.925781 67.742188 144 68.042969 C 144.074219 68.34375 143.773438 68.867188 143.324219 69.09375 C 141.824219 69.84375 135.074219 68.417969 131.625 68.492188 C 128.925781 68.566406 125.398438 69.769531 124.273438 69.242188 C 123.75 69.019531 123.375 68.34375 123.523438 68.117188 C 123.898438 67.367188 130.875 68.941406 133.949219 68.644531 C 136.425781 68.417969 139.5 66.691406 140.550781 67.066406 C 141 67.21875 141.226562 67.667969 141.226562 67.96875 C 141.226562 68.269531 141 68.644531 140.625 68.867188 C 139.574219 69.46875 134.476562 69.46875 133.125 69.242188 C 132.601562 69.167969 132.148438 69.09375 132 68.792969 C 131.851562 68.492188 131.851562 67.667969 132.226562 67.367188 C 133.050781 66.691406 138.300781 67.066406 139.125 67.742188 C 139.5 68.042969 139.5 68.644531 139.425781 68.941406 C 139.351562 69.242188 139.050781 69.394531 138.601562 69.617188 C 137.398438 70.21875 132.300781 71.34375 130.949219 71.042969 C 130.425781 70.894531 129.824219 70.519531 129.898438 70.292969 C 130.050781 69.769531 135.976562 69.09375 137.023438 69.46875 C 137.398438 69.617188 137.699219 69.917969 137.699219 70.21875 C 137.773438 70.59375 137.550781 71.191406 137.023438 71.492188 C 135.074219 72.617188 121.199219 72.019531 119.398438 70.742188 C 118.875 70.367188 118.648438 69.691406 118.875 69.316406 C 119.699219 68.117188 132.375 68.269531 134.398438 68.941406 C 135 69.09375 135.449219 69.46875 135.375 69.691406 C 135.148438 70.292969 125.699219 70.667969 124.199219 69.769531 C 123.601562 69.394531 123.226562 68.71875 123.449219 68.34375 C 123.976562 67.441406 130.726562 67.96875 133.273438 67.441406 C 135 67.066406 136.726562 65.792969 137.550781 66.019531 C 137.925781 66.09375 138.226562 66.46875 138.300781 66.769531 C 138.375 67.066406 138.148438 67.519531 137.699219 67.816406 C 136.125 68.792969 124.726562 69.242188 124.050781 68.269531 C 123.824219 67.96875 124.050781 67.292969 124.574219 66.917969 C 126.226562 65.792969 138.675781 66.019531 140.550781 66.917969 C 141.074219 67.144531 141.300781 67.59375 141.300781 67.894531 C 141.300781 68.191406 140.925781 68.644531 140.398438 68.792969 C 139.199219 69.242188 134.699219 68.644531 133.5 68.117188 C 132.976562 67.894531 132.523438 67.59375 132.601562 67.367188 C 132.824219 66.769531 141.523438 66.394531 142.875 67.21875 C 143.324219 67.519531 143.550781 68.117188 143.476562 68.417969 C 143.398438 68.71875 143.101562 69.019531 142.574219 69.167969 C 140.925781 69.769531 132.300781 69.46875 130.574219 68.867188 C 130.050781 68.71875 129.523438 68.34375 129.601562 68.191406 C 129.75 67.667969 140.101562 67.667969 141.75 68.34375 C 142.273438 68.566406 142.574219 68.792969 142.574219 69.09375 C 142.574219 69.394531 142.273438 69.992188 141.75 70.21875 C 140.398438 70.894531 133.574219 70.519531 132.375 69.769531 C 131.925781 69.542969 131.699219 69.09375 131.773438 68.792969 C 131.851562 68.492188 132.523438 67.894531 132.824219 67.96875 C 133.125 68.042969 133.726562 68.792969 133.648438 69.09375 C 133.574219 69.394531 132.75 69.917969 132.449219 69.84375 C 132.148438 69.769531 131.699219 68.941406 131.773438 68.644531 C 131.851562 68.34375 132.074219 68.117188 132.449219 67.96875 C 133.726562 67.441406 140.398438 67.59375 141.75 68.34375 C 142.273438 68.644531 142.648438 69.167969 142.574219 69.542969 C 142.5 69.917969 141.976562 70.144531 141.375 70.367188 C 139.800781 70.894531 134.398438 70.59375 132.074219 70.292969 C 130.574219 70.066406 129.074219 69.917969 128.550781 69.394531 C 128.25 69.09375 128.175781 68.566406 128.25 68.269531 C 128.324219 67.894531 128.699219 67.59375 129.226562 67.367188 C 130.273438 66.917969 132.675781 66.769531 134.699219 66.691406 C 137.175781 66.617188 141.75 66.46875 142.875 67.21875 C 143.324219 67.519531 143.550781 68.042969 143.476562 68.417969 C 143.398438 68.792969 142.726562 69.167969 141.976562 69.394531 C 140.476562 69.84375 136.273438 69.769531 134.324219 69.542969 C 133.125 69.394531 131.925781 69.242188 131.476562 68.71875 C 131.175781 68.34375 131.175781 67.59375 131.324219 67.21875 C 131.476562 66.84375 131.773438 66.617188 132.226562 66.46875 C 133.351562 66.019531 137.25 65.941406 138.898438 66.316406 C 139.949219 66.542969 141.226562 67.21875 141.300781 67.667969 C 141.375 68.117188 140.625 68.71875 139.726562 69.019531 C 137.324219 69.84375 126.226562 69.84375 124.574219 68.71875 C 124.050781 68.34375 123.898438 67.742188 124.050781 67.367188 C 124.199219 66.917969 124.875 66.617188 125.699219 66.394531 C 127.273438 65.867188 130.949219 65.71875 133.199219 65.71875 C 135 65.71875 137.550781 65.644531 138.074219 66.316406 C 138.375 66.691406 138.074219 67.59375 137.773438 67.96875 C 137.476562 68.34375 136.875 68.417969 136.050781 68.644531 C 134.25 69.09375 129.601562 69.84375 127.273438 69.84375 C 125.773438 69.84375 123.75 69.769531 123.449219 69.242188 C 123.300781 68.867188 123.601562 68.191406 124.199219 67.816406 C 125.625 66.917969 132.75 67.441406 134.550781 67.742188 C 135.226562 67.816406 135.601562 67.894531 135.898438 68.191406 C 136.199219 68.492188 136.425781 69.316406 136.273438 69.691406 C 136.125 70.144531 135.601562 70.441406 134.851562 70.667969 C 132.523438 71.417969 121.574219 71.566406 119.476562 71.34375 C 118.875 71.269531 118.648438 71.269531 118.425781 71.042969 C 118.125 70.742188 117.75 69.992188 117.976562 69.617188 C 118.273438 69.09375 119.550781 69.019531 120.898438 68.867188 C 123.675781 68.492188 130.726562 68.644531 133.726562 68.941406 C 135.375 69.09375 136.949219 69.167969 137.476562 69.769531 C 137.773438 70.066406 137.773438 70.667969 137.625 71.042969 C 137.398438 71.492188 136.800781 71.941406 135.976562 72.167969 C 134.550781 72.617188 130.125 72.617188 129.148438 71.867188 C 128.699219 71.492188 128.476562 70.894531 128.625 70.441406 C 128.851562 69.769531 130.351562 69.019531 131.398438 68.566406 C 132.523438 68.042969 133.949219 67.667969 135.226562 67.519531 C 136.425781 67.367188 137.925781 67.144531 138.675781 67.441406 C 139.125 67.667969 139.425781 68.042969 139.5 68.417969 C 139.574219 68.71875 139.5 69.167969 139.125 69.394531 C 138.226562 69.992188 133.351562 69.617188 132.375 69.09375 C 132 68.867188 131.851562 68.566406 131.851562 68.269531 C 131.851562 67.894531 132.074219 67.441406 132.523438 67.144531 C 133.726562 66.46875 139.351562 66.46875 140.550781 67.066406 C 141 67.292969 141.226562 67.667969 141.226562 67.96875 C 141.226562 68.34375 140.773438 68.867188 140.25 69.167969 C 139.125 69.84375 136.351562 70.21875 133.949219 70.367188 C 130.800781 70.59375 124.050781 70.96875 122.925781 69.84375 C 122.476562 69.394531 122.398438 68.492188 122.773438 68.042969 C 123.375 67.21875 126 67.066406 128.101562 66.84375 C 131.175781 66.542969 136.800781 66.769531 139.648438 66.917969 C 141.300781 66.992188 142.949219 66.917969 143.550781 67.367188 C 143.851562 67.59375 144 67.96875 144 68.269531 C 144 68.566406 143.773438 68.867188 143.324219 69.09375 C 141.449219 69.917969 127.425781 69.167969 125.625 67.816406 C 125.101562 67.441406 124.949219 66.84375 125.101562 66.46875 C 125.25 66.019531 125.851562 65.71875 126.601562 65.492188 C 128.398438 64.96875 133.5 65.117188 136.199219 65.191406 C 138.148438 65.269531 140.476562 65.042969 141.148438 65.644531 C 141.449219 65.941406 141.523438 66.46875 141.375 66.84375 C 141.148438 67.292969 140.398438 67.667969 139.351562 67.96875 C 136.351562 68.867188 123.226562 70.742188 121.199219 69.769531 C 120.601562 69.46875 120.375 68.941406 120.449219 68.566406 C 120.523438 68.191406 120.976562 67.816406 121.5 67.667969 C 122.773438 67.292969 127.875 67.742188 128.550781 68.644531 C 128.925781 69.09375 128.851562 69.84375 128.398438 70.367188 C 127.5 71.492188 122.851562 72.09375 120.300781 72.46875 C 118.050781 72.769531 114.449219 73.292969 114 72.617188 C 113.773438 72.316406 114 71.492188 114.601562 71.042969 C 116.398438 69.617188 126.898438 69.46875 131.25 69.394531 C 134.101562 69.316406 137.324219 68.941406 138.300781 69.769531 C 138.75 70.144531 138.898438 71.042969 138.675781 71.417969 C 138.449219 71.792969 137.398438 71.941406 136.726562 71.941406 C 135.976562 71.941406 134.625 71.792969 134.324219 71.34375 C 134.101562 70.96875 134.25 70.066406 134.699219 69.691406 C 135.601562 69.019531 140.023438 69.542969 141.074219 70.066406 C 141.523438 70.292969 141.898438 70.667969 141.898438 70.96875 C 141.898438 71.34375 141.601562 71.867188 141.074219 72.167969 C 139.800781 72.769531 134.699219 72.316406 133.050781 71.867188 C 132.300781 71.644531 131.625 71.492188 131.398438 71.042969 C 131.175781 70.59375 131.324219 69.617188 131.851562 69.167969 C 132.976562 68.191406 138.824219 68.492188 140.550781 68.792969 C 141.375 68.941406 141.976562 69.09375 142.199219 69.542969 C 142.425781 69.917969 142.425781 70.816406 142.050781 71.269531 C 141.601562 71.792969 140.25 72.019531 139.199219 72.167969 C 137.851562 72.316406 135.75 72.394531 134.625 72.019531 C 133.875 71.792969 133.050781 71.34375 132.898438 70.816406 C 132.75 70.292969 133.273438 69.394531 133.949219 68.792969 C 135.300781 67.59375 139.5 66.167969 141.675781 65.792969 C 143.175781 65.492188 144.898438 65.492188 145.574219 65.867188 C 145.949219 66.019531 146.175781 66.394531 146.175781 66.691406 C 146.175781 66.992188 146.023438 67.441406 145.648438 67.742188 C 144.601562 68.417969 139.800781 68.417969 138.148438 68.269531 C 137.324219 68.191406 136.648438 68.117188 136.351562 67.742188 C 136.050781 67.292969 135.976562 66.316406 136.425781 65.71875 C 137.25 64.519531 141.226562 63.09375 143.175781 62.566406 C 144.523438 62.191406 146.101562 61.816406 146.851562 62.191406 C 147.300781 62.417969 147.675781 63.019531 147.601562 63.394531 C 147.523438 63.769531 146.925781 64.066406 146.324219 64.519531 C 144.976562 65.417969 141.976562 66.84375 139.574219 67.816406 C 136.949219 68.867188 133.875 70.144531 131.101562 70.59375 C 128.550781 70.96875 124.949219 71.191406 123.449219 70.519531 C 122.625 70.144531 121.949219 69.542969 121.875 68.941406 C 121.726562 68.191406 122.550781 66.542969 123.300781 66.242188 C 124.050781 65.941406 125.851562 66.617188 126.226562 67.21875 C 126.523438 67.667969 126.375 68.566406 126.148438 69.09375 C 125.925781 69.617188 125.550781 70.144531 125.023438 70.367188 C 124.273438 70.667969 122.550781 70.816406 122.023438 70.367188 C 121.574219 70.066406 121.425781 69.09375 121.574219 68.566406 C 121.726562 68.117188 122.101562 67.667969 122.625 67.441406 C 123.300781 67.21875 124.726562 67.21875 125.25 67.59375 C 125.699219 67.96875 126 68.941406 125.925781 69.46875 C 125.851562 69.992188 125.476562 70.441406 124.949219 70.816406 C 124.199219 71.34375 122.175781 71.867188 121.425781 71.71875 C 120.976562 71.644531 120.523438 71.269531 120.449219 70.96875 C 120.375 70.59375 120.675781 69.917969 121.125 69.542969 C 121.949219 68.941406 124.050781 68.792969 125.625 68.71875 C 127.351562 68.566406 130.125 68.492188 131.023438 68.941406 C 131.398438 69.167969 131.625 69.46875 131.625 69.769531 C 131.625 70.066406 131.550781 70.59375 131.101562 70.894531 C 130.050781 71.566406 124.050781 71.941406 123.375 71.117188 C 123.074219 70.742188 123.300781 69.84375 123.75 69.394531 C 124.5 68.644531 126.75 68.492188 128.476562 68.269531 C 130.351562 68.042969 133.273438 67.816406 134.625 68.191406 C 135.375 68.417969 136.273438 68.941406 136.273438 69.316406 C 136.273438 69.691406 135.675781 70.144531 134.925781 70.441406 C 133.050781 71.117188 124.875 71.191406 123.375 70.441406 C 122.925781 70.21875 122.699219 69.769531 122.699219 69.46875 C 122.699219 69.167969 122.851562 68.792969 123.226562 68.492188 C 123.898438 67.96875 125.925781 67.667969 127.351562 67.519531 C 128.773438 67.367188 130.875 67.21875 131.699219 67.59375 C 132.148438 67.816406 132.449219 68.191406 132.523438 68.492188 C 132.601562 68.792969 132.449219 69.242188 132 69.542969 C 130.726562 70.441406 123.074219 70.96875 121.5 70.59375 C 120.976562 70.441406 120.675781 70.292969 120.601562 69.992188 C 120.523438 69.691406 120.523438 69.242188 120.824219 68.941406 C 121.351562 68.417969 123.074219 68.492188 124.800781 68.34375 C 127.875 68.117188 136.199219 67.816406 137.851562 68.566406 C 138.300781 68.792969 138.601562 69.09375 138.601562 69.394531 C 138.601562 69.691406 138.375 70.144531 137.851562 70.441406 C 135.976562 71.417969 123.601562 71.492188 121.726562 70.519531 C 121.199219 70.21875 120.898438 69.691406 120.976562 69.394531 C 121.050781 69.019531 122.023438 68.492188 122.023438 68.492188 " clip-rule="nonzero"/></clipPath><clipPath id="eafe2485ea"><path d="M 105.390625 66.445312 L 141.355469 66.445312 L 141.355469 74.960938 L 105.390625 74.960938 Z M 105.390625 66.445312 " clip-rule="nonzero"/></clipPath><clipPath id="8539def3fa"><path d="M 129.675781 67.726562 C 141 68.023438 141.300781 68.324219 141.300781 68.625 C 141.300781 68.925781 141.148438 69.449219 140.550781 69.75 C 137.625 71.398438 109.351562 71.773438 106.273438 70.425781 C 105.675781 70.125 105.449219 69.75 105.449219 69.449219 C 105.449219 69.148438 105.601562 68.773438 106.125 68.550781 C 108.75 67.273438 134.25 67.800781 137.25 69 C 137.851562 69.226562 138.074219 69.523438 138.148438 69.824219 C 138.226562 70.125 137.925781 70.648438 137.476562 70.875 C 136.125 71.398438 128.023438 69.75 127.648438 68.773438 C 127.5 68.398438 128.101562 67.726562 128.699219 67.425781 C 129.898438 66.75 134.324219 66.449219 135.601562 66.976562 C 136.199219 67.199219 136.726562 67.800781 136.726562 68.175781 C 136.726562 68.550781 136.273438 68.851562 135.675781 69.148438 C 134.175781 69.898438 129.523438 69.976562 126.300781 70.726562 C 122.851562 71.550781 117.300781 74.476562 115.726562 73.875 C 115.125 73.648438 114.601562 72.824219 114.824219 72.449219 C 115.648438 70.875 137.550781 69.976562 139.875 71.101562 C 140.398438 71.324219 140.550781 71.699219 140.550781 72 C 140.550781 72.300781 140.398438 72.675781 139.949219 72.898438 C 138.675781 73.574219 131.398438 73.425781 130.199219 72.675781 C 129.824219 72.449219 129.675781 72 129.675781 71.699219 C 129.675781 71.398438 129.976562 71.023438 130.425781 70.800781 C 131.476562 70.273438 136.050781 69.976562 137.175781 70.574219 C 137.773438 70.875 138.074219 71.550781 138.074219 71.925781 C 138.074219 72.226562 137.773438 72.523438 137.324219 72.675781 C 136.273438 73.050781 132 72.601562 130.949219 71.925781 C 130.425781 71.550781 130.050781 70.949219 130.125 70.574219 C 130.199219 70.273438 130.800781 69.75 131.101562 69.75 C 131.476562 69.75 132.226562 70.5 132.226562 70.875 C 132.148438 71.25 131.101562 71.925781 130.726562 71.851562 C 130.425781 71.773438 130.050781 70.800781 130.199219 70.425781 C 130.351562 70.125 130.800781 69.898438 131.324219 69.824219 C 132.523438 69.601562 136.5 69.976562 137.476562 70.648438 C 137.925781 70.949219 138.148438 71.550781 138.074219 71.925781 C 138 72.226562 137.773438 72.523438 137.324219 72.675781 C 136.273438 73.125 131.925781 73.273438 130.726562 72.824219 C 130.199219 72.601562 129.75 72.300781 129.675781 71.925781 C 129.601562 71.625 129.898438 71.023438 130.425781 70.800781 C 131.773438 70.125 138.601562 70.425781 139.875 71.101562 C 140.324219 71.324219 140.550781 71.699219 140.550781 72 C 140.550781 72.300781 140.398438 72.675781 139.949219 72.898438 C 138.75 73.574219 134.476562 73.574219 131.101562 73.726562 C 126.675781 73.949219 117.675781 74.925781 115.726562 73.875 C 115.050781 73.5 114.675781 72.898438 114.824219 72.449219 C 115.273438 71.25 122.25 69.824219 125.851562 68.925781 C 129.148438 68.101562 134.023438 66.449219 135.601562 66.976562 C 136.273438 67.199219 136.726562 67.800781 136.726562 68.175781 C 136.726562 68.550781 136.273438 68.925781 135.675781 69.148438 C 134.398438 69.675781 129.898438 69.898438 128.625 69.523438 C 128.101562 69.375 127.726562 69.074219 127.648438 68.773438 C 127.574219 68.398438 128.101562 67.648438 128.699219 67.425781 C 129.824219 66.976562 132.898438 67.875 134.550781 68.25 C 135.75 68.476562 137.175781 68.699219 137.699219 69.148438 C 138 69.375 138.148438 69.75 138.148438 70.050781 C 138.148438 70.351562 137.925781 70.648438 137.476562 70.875 C 134.925781 72.074219 112.5 70.800781 108.300781 70.574219 C 107.101562 70.5 106.5 70.648438 106.050781 70.351562 C 105.75 70.125 105.449219 69.75 105.449219 69.449219 C 105.449219 69.148438 105.675781 68.773438 106.125 68.550781 C 107.101562 68.023438 109.425781 68.25 112.199219 68.101562 C 118.199219 67.875 137.925781 66.675781 140.550781 67.800781 C 141.074219 68.023438 141.300781 68.324219 141.300781 68.625 C 141.300781 68.925781 141.074219 69.449219 140.550781 69.75 C 139.050781 70.574219 131.023438 70.648438 129.449219 69.824219 C 128.925781 69.523438 128.550781 69 128.625 68.625 C 128.699219 68.25 129.675781 67.726562 129.675781 67.726562 " clip-rule="nonzero"/></clipPath><clipPath id="85696e1a2f"><path d="M 134.398438 57.503906 L 146.398438 57.503906 L 146.398438 77.003906 L 134.398438 77.003906 Z M 134.398438 57.503906 " clip-rule="nonzero"/></clipPath><clipPath id="449cf254ad"><path d="M 119.851562 57.332031 L 131.851562 57.332031 L 131.851562 76.832031 L 119.851562 76.832031 Z M 119.851562 57.332031 " clip-rule="nonzero"/></clipPath></defs><g fill="#000000" fill-opacity="1"><g transform="translate(11.571647, 116.057331)"><g><path d="M 46.8125 -0.984375 C 45.488281 -1.484375 44.375 -2.285156 43.46875 -3.390625 C 42.5625 -4.492188 41.785156 -5.710938 41.140625 -7.046875 C 40.503906 -8.378906 40.003906 -9.757812 39.640625 -11.1875 C 39.273438 -12.625 38.976562 -13.921875 38.75 -15.078125 C 38.625 -15.691406 38.472656 -16.664062 38.296875 -18 C 38.128906 -19.34375 37.9375 -20.832031 37.71875 -22.46875 C 37.507812 -24.113281 37.296875 -25.851562 37.078125 -27.6875 C 36.867188 -29.53125 36.671875 -31.265625 36.484375 -32.890625 L 35.953125 -37.34375 C 35.804688 -38.664062 35.710938 -39.632812 35.671875 -40.25 L 28.703125 -12.0625 L 28.359375 -11.421875 C 28.203125 -11.078125 27.976562 -10.703125 27.6875 -10.296875 C 27.40625 -9.890625 27.085938 -9.492188 26.734375 -9.109375 C 26.390625 -8.722656 26.03125 -8.441406 25.65625 -8.265625 C 25.289062 -8.085938 24.929688 -8.035156 24.578125 -8.109375 C 24.234375 -8.191406 23.925781 -8.523438 23.65625 -9.109375 L 8.53125 -39.265625 L 4.53125 -9.109375 C 4.445312 -8.566406 4.226562 -8.226562 3.875 -8.09375 C 3.53125 -7.957031 3.175781 -7.957031 2.8125 -8.09375 C 2.445312 -8.226562 2.117188 -8.46875 1.828125 -8.8125 C 1.535156 -9.164062 1.429688 -9.570312 1.515625 -10.03125 L 6.546875 -47.328125 C 6.546875 -47.484375 6.679688 -47.675781 6.953125 -47.90625 C 7.222656 -48.132812 7.53125 -48.328125 7.875 -48.484375 C 8.226562 -48.640625 8.566406 -48.726562 8.890625 -48.75 C 9.222656 -48.769531 9.445312 -48.644531 9.5625 -48.375 L 25.40625 -13.171875 L 34.6875 -48.375 C 34.71875 -48.488281 34.925781 -48.785156 35.3125 -49.265625 C 35.707031 -49.753906 36.132812 -50.207031 36.59375 -50.625 C 37.0625 -51.050781 37.503906 -51.367188 37.921875 -51.578125 C 38.347656 -51.796875 38.625 -51.710938 38.75 -51.328125 L 39.734375 -47.328125 C 39.847656 -44.703125 39.941406 -41.644531 40.015625 -38.15625 C 40.097656 -34.675781 40.3125 -31.097656 40.65625 -27.421875 C 41 -23.753906 41.554688 -20.140625 42.328125 -16.578125 C 43.109375 -13.023438 44.269531 -9.859375 45.8125 -7.078125 C 45.9375 -6.878906 46.132812 -6.613281 46.40625 -6.28125 C 46.675781 -5.957031 46.960938 -5.640625 47.265625 -5.328125 C 47.578125 -5.023438 47.882812 -4.75 48.1875 -4.5 C 48.5 -4.25 48.710938 -4.101562 48.828125 -4.0625 C 49.222656 -3.90625 49.75 -3.882812 50.40625 -4 C 51.0625 -4.113281 51.734375 -4.195312 52.421875 -4.25 C 53.117188 -4.3125 53.785156 -4.273438 54.421875 -4.140625 C 55.066406 -4.003906 55.546875 -3.628906 55.859375 -3.015625 C 56.160156 -2.398438 56.1875 -1.90625 55.9375 -1.53125 C 55.6875 -1.164062 55.269531 -0.882812 54.6875 -0.6875 C 54.113281 -0.5 53.4375 -0.382812 52.65625 -0.34375 C 51.882812 -0.3125 51.113281 -0.320312 50.34375 -0.375 C 49.570312 -0.4375 48.851562 -0.523438 48.1875 -0.640625 C 47.53125 -0.753906 47.070312 -0.867188 46.8125 -0.984375 Z M 46.8125 -0.984375 "/></g></g></g><g fill="#000000" fill-opacity="1"><g transform="translate(69.450116, 116.057331)"><g><path d="M 2.5 -0.984375 C 1.71875 -2.609375 1.296875 -4.25 1.234375 -5.90625 C 1.179688 -7.570312 1.273438 -9.273438 1.515625 -11.015625 C 1.546875 -11.554688 1.640625 -12.367188 1.796875 -13.453125 C 1.953125 -14.535156 2.125 -15.734375 2.3125 -17.046875 C 2.507812 -18.367188 2.722656 -19.765625 2.953125 -21.234375 C 3.191406 -22.703125 3.40625 -24.09375 3.59375 -25.40625 C 3.789062 -26.71875 3.972656 -27.882812 4.140625 -28.90625 C 4.316406 -29.9375 4.445312 -30.703125 4.53125 -31.203125 C 4.832031 -32.828125 5.164062 -34.207031 5.53125 -35.34375 C 5.90625 -36.488281 6.410156 -37.367188 7.046875 -37.984375 C 7.679688 -38.609375 8.507812 -38.9375 9.53125 -38.96875 C 10.5625 -39.007812 11.890625 -38.757812 13.515625 -38.21875 C 13.703125 -38.175781 13.910156 -38.03125 14.140625 -37.78125 C 14.378906 -37.53125 14.519531 -37.347656 14.5625 -37.234375 C 14.632812 -36.734375 14.773438 -35.957031 14.984375 -34.90625 C 15.203125 -33.863281 15.445312 -32.675781 15.71875 -31.34375 C 15.988281 -30.007812 16.269531 -28.617188 16.5625 -27.171875 C 16.851562 -25.722656 17.132812 -24.332031 17.40625 -23 C 17.675781 -21.664062 17.914062 -20.472656 18.125 -19.421875 C 18.332031 -18.378906 18.5 -17.609375 18.625 -17.109375 C 19.195312 -14.359375 19.910156 -12.453125 20.765625 -11.390625 C 21.617188 -10.328125 22.523438 -9.773438 23.484375 -9.734375 C 24.453125 -9.703125 25.445312 -10.023438 26.46875 -10.703125 C 27.5 -11.378906 28.515625 -12.09375 29.515625 -12.84375 C 30.523438 -13.601562 31.472656 -14.253906 32.359375 -14.796875 C 33.253906 -15.335938 34.03125 -15.429688 34.6875 -15.078125 C 34.6875 -14.347656 34.507812 -13.632812 34.15625 -12.9375 C 33.8125 -12.238281 33.394531 -11.585938 32.90625 -10.984375 C 32.425781 -10.390625 31.894531 -9.835938 31.3125 -9.328125 C 30.738281 -8.828125 30.203125 -8.40625 29.703125 -8.0625 C 27.535156 -6.632812 25.722656 -5.878906 24.265625 -5.796875 C 22.816406 -5.722656 21.585938 -6.050781 20.578125 -6.78125 C 19.578125 -7.519531 18.765625 -8.523438 18.140625 -9.796875 C 17.523438 -11.078125 16.976562 -12.375 16.5 -13.6875 C 16.019531 -15 15.554688 -16.164062 15.109375 -17.1875 C 14.660156 -18.21875 14.128906 -18.867188 13.515625 -19.140625 C 13.398438 -18.640625 13.15625 -17.769531 12.78125 -16.53125 C 12.414062 -15.289062 12.019531 -13.972656 11.59375 -12.578125 C 11.175781 -11.191406 10.769531 -9.878906 10.375 -8.640625 C 9.988281 -7.398438 9.71875 -6.53125 9.5625 -6.03125 C 9.488281 -5.832031 9.328125 -5.460938 9.078125 -4.921875 C 8.828125 -4.390625 8.507812 -3.800781 8.125 -3.15625 C 7.738281 -2.519531 7.300781 -1.898438 6.8125 -1.296875 C 6.332031 -0.703125 5.835938 -0.242188 5.328125 0.078125 C 4.828125 0.410156 4.328125 0.519531 3.828125 0.40625 C 3.328125 0.289062 2.882812 -0.171875 2.5 -0.984375 Z M 5.515625 -18.09375 C 5.429688 -17.632812 5.378906 -16.785156 5.359375 -15.546875 C 5.335938 -14.304688 5.328125 -12.988281 5.328125 -11.59375 C 5.328125 -10.207031 5.335938 -8.894531 5.359375 -7.65625 C 5.378906 -6.414062 5.429688 -5.546875 5.515625 -5.046875 C 6.867188 -7.097656 8.082031 -9.484375 9.15625 -12.203125 C 10.238281 -14.929688 11.0625 -17.753906 11.625 -20.671875 C 12.1875 -23.597656 12.410156 -26.5 12.296875 -29.375 C 12.179688 -32.257812 11.601562 -34.878906 10.5625 -37.234375 C 9.894531 -36.035156 9.269531 -34.523438 8.6875 -32.703125 C 8.113281 -30.890625 7.613281 -29.046875 7.1875 -27.171875 C 6.757812 -25.296875 6.398438 -23.535156 6.109375 -21.890625 C 5.828125 -20.242188 5.628906 -18.976562 5.515625 -18.09375 Z M 5.515625 -18.09375 "/></g></g></g><g fill="#000000" fill-opacity="1"><g transform="translate(98.853306, 116.057331)"><g><path d="M 5.734375 -0.640625 C 5.117188 0.640625 4.597656 1.285156 4.171875 1.296875 C 3.742188 1.316406 3.382812 0.890625 3.09375 0.015625 C 2.8125 -0.847656 2.582031 -2.070312 2.40625 -3.65625 C 2.226562 -5.238281 2.109375 -6.992188 2.046875 -8.921875 C 1.992188 -10.859375 1.988281 -12.890625 2.03125 -15.015625 C 2.070312 -17.148438 2.140625 -19.203125 2.234375 -21.171875 C 2.328125 -23.140625 2.453125 -24.945312 2.609375 -26.59375 C 2.765625 -28.238281 2.925781 -29.535156 3.09375 -30.484375 C 3.269531 -31.429688 3.453125 -31.941406 3.640625 -32.015625 C 3.835938 -32.085938 4.035156 -31.566406 4.234375 -30.453125 C 5.472656 -31.378906 6.804688 -32.253906 8.234375 -33.078125 C 9.660156 -33.910156 11.140625 -34.609375 12.671875 -35.171875 C 14.203125 -35.734375 15.75 -36.09375 17.3125 -36.25 C 18.875 -36.40625 20.390625 -36.269531 21.859375 -35.84375 C 22.015625 -35.34375 22.035156 -34.765625 21.921875 -34.109375 C 21.804688 -33.453125 21.441406 -33.023438 20.828125 -32.828125 C 20.203125 -32.941406 19.382812 -33 18.375 -33 C 17.375 -33 16.3125 -32.921875 15.1875 -32.765625 C 14.070312 -32.609375 12.953125 -32.359375 11.828125 -32.015625 C 10.710938 -31.671875 9.695312 -31.21875 8.78125 -30.65625 C 7.875 -30.09375 7.140625 -29.414062 6.578125 -28.625 C 6.015625 -27.832031 5.734375 -26.894531 5.734375 -25.8125 Z M 5.734375 -0.640625 "/></g></g></g><g fill="#000000" fill-opacity="1"><g transform="translate(123.326968, 116.057331)"><g><path d="M 2.03125 -3.015625 C 1.945312 -3.171875 1.847656 -3.46875 1.734375 -3.90625 C 1.617188 -4.351562 1.503906 -4.847656 1.390625 -5.390625 C 1.273438 -5.929688 1.175781 -6.453125 1.09375 -6.953125 C 1.019531 -7.460938 0.984375 -7.832031 0.984375 -8.0625 L 0.984375 -36.25 C 0.984375 -36.632812 1.15625 -36.90625 1.5 -37.0625 C 1.851562 -37.21875 2.25 -37.300781 2.6875 -37.3125 C 3.132812 -37.332031 3.539062 -37.320312 3.90625 -37.28125 C 4.28125 -37.25 4.488281 -37.234375 4.53125 -37.234375 L 4.53125 -6.03125 C 4.53125 -5.375 4.738281 -4.832031 5.15625 -4.40625 C 5.582031 -3.976562 6.085938 -3.640625 6.671875 -3.390625 C 7.253906 -3.140625 7.851562 -2.984375 8.46875 -2.921875 C 9.082031 -2.867188 9.601562 -2.898438 10.03125 -3.015625 C 10.570312 -2.203125 10.5625 -1.550781 10 -1.0625 C 9.4375 -0.582031 8.644531 -0.3125 7.625 -0.25 C 6.601562 -0.195312 5.539062 -0.394531 4.4375 -0.84375 C 3.332031 -1.289062 2.53125 -2.015625 2.03125 -3.015625 Z M 0 -46.34375 C 0 -47.457031 0.441406 -48.179688 1.328125 -48.515625 C 2.222656 -48.847656 3.132812 -48.800781 4.0625 -48.375 L 4.0625 -45.296875 C 3.945312 -45.253906 3.742188 -45.222656 3.453125 -45.203125 C 3.160156 -45.191406 2.847656 -45.1875 2.515625 -45.1875 C 2.191406 -45.1875 1.882812 -45.191406 1.59375 -45.203125 C 1.300781 -45.222656 1.097656 -45.253906 0.984375 -45.296875 C 0.828125 -45.335938 0.625 -45.492188 0.375 -45.765625 C 0.125 -46.035156 0 -46.226562 0 -46.34375 Z M 0 -46.34375 "/></g></g></g><g fill="#000000" fill-opacity="1"><g transform="translate(134.92586, 116.057331)"><g><path d="M 2.03125 -3.015625 C 1.945312 -3.171875 1.847656 -3.46875 1.734375 -3.90625 C 1.617188 -4.351562 1.503906 -4.847656 1.390625 -5.390625 C 1.273438 -5.929688 1.175781 -6.453125 1.09375 -6.953125 C 1.019531 -7.460938 0.984375 -7.832031 0.984375 -8.0625 L 0.984375 -36.25 C 0.984375 -36.632812 1.15625 -36.90625 1.5 -37.0625 C 1.851562 -37.21875 2.25 -37.300781 2.6875 -37.3125 C 3.132812 -37.332031 3.539062 -37.320312 3.90625 -37.28125 C 4.28125 -37.25 4.488281 -37.234375 4.53125 -37.234375 L 4.53125 -6.03125 C 4.53125 -5.375 4.738281 -4.832031 5.15625 -4.40625 C 5.582031 -3.976562 6.085938 -3.640625 6.671875 -3.390625 C 7.253906 -3.140625 7.851562 -2.984375 8.46875 -2.921875 C 9.082031 -2.867188 9.601562 -2.898438 10.03125 -3.015625 C 10.570312 -2.203125 10.5625 -1.550781 10 -1.0625 C 9.4375 -0.582031 8.644531 -0.3125 7.625 -0.25 C 6.601562 -0.195312 5.539062 -0.394531 4.4375 -0.84375 C 3.332031 -1.289062 2.53125 -2.015625 2.03125 -3.015625 Z M 0 -46.34375 C 0 -47.457031 0.441406 -48.179688 1.328125 -48.515625 C 2.222656 -48.847656 3.132812 -48.800781 4.0625 -48.375 L 4.0625 -45.296875 C 3.945312 -45.253906 3.742188 -45.222656 3.453125 -45.203125 C 3.160156 -45.191406 2.847656 -45.1875 2.515625 -45.1875 C 2.191406 -45.1875 1.882812 -45.191406 1.59375 -45.203125 C 1.300781 -45.222656 1.097656 -45.253906 0.984375 -45.296875 C 0.828125 -45.335938 0.625 -45.492188 0.375 -45.765625 C 0.125 -46.035156 0 -46.226562 0 -46.34375 Z M 0 -46.34375 "/></g></g></g><g fill="#000000" fill-opacity="1"><g transform="translate(146.524751, 116.057331)"><g><path d="M 2.5 -0.984375 C 1.71875 -2.609375 1.296875 -4.25 1.234375 -5.90625 C 1.179688 -7.570312 1.273438 -9.273438 1.515625 -11.015625 C 1.546875 -11.554688 1.640625 -12.367188 1.796875 -13.453125 C 1.953125 -14.535156 2.125 -15.734375 2.3125 -17.046875 C 2.507812 -18.367188 2.722656 -19.765625 2.953125 -21.234375 C 3.191406 -22.703125 3.40625 -24.09375 3.59375 -25.40625 C 3.789062 -26.71875 3.972656 -27.882812 4.140625 -28.90625 C 4.316406 -29.9375 4.445312 -30.703125 4.53125 -31.203125 C 4.832031 -32.828125 5.164062 -34.207031 5.53125 -35.34375 C 5.90625 -36.488281 6.410156 -37.367188 7.046875 -37.984375 C 7.679688 -38.609375 8.507812 -38.9375 9.53125 -38.96875 C 10.5625 -39.007812 11.890625 -38.757812 13.515625 -38.21875 C 13.703125 -38.175781 13.910156 -38.03125 14.140625 -37.78125 C 14.378906 -37.53125 14.519531 -37.347656 14.5625 -37.234375 C 14.632812 -36.734375 14.773438 -35.957031 14.984375 -34.90625 C 15.203125 -33.863281 15.445312 -32.675781 15.71875 -31.34375 C 15.988281 -30.007812 16.269531 -28.617188 16.5625 -27.171875 C 16.851562 -25.722656 17.132812 -24.332031 17.40625 -23 C 17.675781 -21.664062 17.914062 -20.472656 18.125 -19.421875 C 18.332031 -18.378906 18.5 -17.609375 18.625 -17.109375 C 19.195312 -14.359375 19.910156 -12.453125 20.765625 -11.390625 C 21.617188 -10.328125 22.523438 -9.773438 23.484375 -9.734375 C 24.453125 -9.703125 25.445312 -10.023438 26.46875 -10.703125 C 27.5 -11.378906 28.515625 -12.09375 29.515625 -12.84375 C 30.523438 -13.601562 31.472656 -14.253906 32.359375 -14.796875 C 33.253906 -15.335938 34.03125 -15.429688 34.6875 -15.078125 C 34.6875 -14.347656 34.507812 -13.632812 34.15625 -12.9375 C 33.8125 -12.238281 33.394531 -11.585938 32.90625 -10.984375 C 32.425781 -10.390625 31.894531 -9.835938 31.3125 -9.328125 C 30.738281 -8.828125 30.203125 -8.40625 29.703125 -8.0625 C 27.535156 -6.632812 25.722656 -5.878906 24.265625 -5.796875 C 22.816406 -5.722656 21.585938 -6.050781 20.578125 -6.78125 C 19.578125 -7.519531 18.765625 -8.523438 18.140625 -9.796875 C 17.523438 -11.078125 16.976562 -12.375 16.5 -13.6875 C 16.019531 -15 15.554688 -16.164062 15.109375 -17.1875 C 14.660156 -18.21875 14.128906 -18.867188 13.515625 -19.140625 C 13.398438 -18.640625 13.15625 -17.769531 12.78125 -16.53125 C 12.414062 -15.289062 12.019531 -13.972656 11.59375 -12.578125 C 11.175781 -11.191406 10.769531 -9.878906 10.375 -8.640625 C 9.988281 -7.398438 9.71875 -6.53125 9.5625 -6.03125 C 9.488281 -5.832031 9.328125 -5.460938 9.078125 -4.921875 C 8.828125 -4.390625 8.507812 -3.800781 8.125 -3.15625 C 7.738281 -2.519531 7.300781 -1.898438 6.8125 -1.296875 C 6.332031 -0.703125 5.835938 -0.242188 5.328125 0.078125 C 4.828125 0.410156 4.328125 0.519531 3.828125 0.40625 C 3.328125 0.289062 2.882812 -0.171875 2.5 -0.984375 Z M 5.515625 -18.09375 C 5.429688 -17.632812 5.378906 -16.785156 5.359375 -15.546875 C 5.335938 -14.304688 5.328125 -12.988281 5.328125 -11.59375 C 5.328125 -10.207031 5.335938 -8.894531 5.359375 -7.65625 C 5.378906 -6.414062 5.429688 -5.546875 5.515625 -5.046875 C 6.867188 -7.097656 8.082031 -9.484375 9.15625 -12.203125 C 10.238281 -14.929688 11.0625 -17.753906 11.625 -20.671875 C 12.1875 -23.597656 12.410156 -26.5 12.296875 -29.375 C 12.179688 -32.257812 11.601562 -34.878906 10.5625 -37.234375 C 9.894531 -36.035156 9.269531 -34.523438 8.6875 -32.703125 C 8.113281 -30.890625 7.613281 -29.046875 7.1875 -27.171875 C 6.757812 -25.296875 6.398438 -23.535156 6.109375 -21.890625 C 5.828125 -20.242188 5.628906 -18.976562 5.515625 -18.09375 Z M 5.515625 -18.09375 "/></g></g></g><g clip-path="url(#2bf997dc24)"><g clip-path="url(#5f12f08be8)"><path fill="#ffffff" d="M 110.851562 59.191406 L 150.601562 59.191406 L 150.601562 75.917969 L 110.851562 75.917969 Z M 110.851562 59.191406 " fill-opacity="1" fill-rule="nonzero"/></g></g><g clip-path="url(#eafe2485ea)"><g clip-path="url(#8539def3fa)"><path fill="#ffffff" d="M 102.449219 63.976562 L 144.300781 63.976562 L 144.300781 76.875 L 102.449219 76.875 Z M 102.449219 63.976562 " fill-opacity="1" fill-rule="nonzero"/></g></g><g clip-path="url(#85696e1a2f)"><path fill="#000000" d="M 145.960938 58.484375 C 145.753906 58.007812 145.457031 57.691406 144.988281 57.605469 C 144.625 57.535156 144.234375 57.503906 143.871094 57.570312 C 143 57.71875 142.28125 58.210938 141.6875 58.875 C 141.234375 59.375 140.824219 59.914062 140.359375 60.472656 C 140.242188 60.183594 140.132812 59.917969 140.027344 59.652344 C 139.257812 57.71875 137.296875 57.597656 136.027344 58.675781 C 135.636719 59.007812 135.308594 59.46875 135.082031 59.941406 C 134.449219 61.230469 134.398438 62.644531 134.441406 64.058594 C 134.511719 66.3125 134.929688 68.511719 135.414062 70.703125 C 135.773438 72.316406 136.25 73.890625 136.964844 75.375 C 137.214844 75.898438 137.542969 76.382812 137.90625 77.003906 C 138.527344 76.738281 139.03125 76.5 139.554688 76.308594 C 139.980469 76.152344 140.308594 75.90625 140.535156 75.503906 C 140.714844 75.183594 140.914062 74.875 141.066406 74.542969 C 142.296875 71.851562 143.5625 69.171875 144.726562 66.449219 C 145.449219 64.761719 146.046875 63.011719 146.28125 61.160156 C 146.398438 60.242188 146.339844 59.351562 145.960938 58.484375 Z M 138.257812 73.878906 C 138.09375 73.386719 137.925781 72.9375 137.789062 72.472656 C 137 69.828125 136.484375 67.125 136.359375 64.355469 C 136.304688 63.097656 136.328125 61.839844 136.863281 60.660156 C 137.074219 60.203125 137.300781 59.671875 137.863281 59.785156 C 138.367188 59.886719 138.421875 60.449219 138.488281 60.917969 C 138.746094 62.8125 138.667969 64.703125 138.421875 66.589844 C 138.375 66.929688 138.367188 67.28125 138.304688 67.617188 C 138.121094 68.554688 138.4375 69.300781 139.050781 69.929688 L 140.347656 69.621094 C 140.355469 70.234375 138.917969 73.171875 138.257812 73.878906 Z M 140.984375 68.59375 C 140.605469 65.675781 142.433594 60.847656 144.019531 60.007812 C 143.53125 63.117188 142.296875 65.863281 140.984375 68.59375 Z M 140.984375 68.59375 " fill-opacity="1" fill-rule="nonzero"/></g><g clip-path="url(#449cf254ad)"><path fill="#000000" d="M 131.691406 59.28125 C 131.441406 58.101562 130.222656 57.332031 128.972656 58.273438 C 128.363281 58.726562 127.910156 59.3125 127.574219 59.972656 C 126.765625 61.566406 126.289062 63.246094 126.058594 65 C 126.039062 65.152344 125.964844 65.300781 125.886719 65.5625 C 125.738281 65.222656 125.625 65.011719 125.546875 64.78125 C 125.097656 63.421875 124.539062 62.097656 123.765625 60.875 C 123.535156 60.503906 123.214844 60.164062 122.875 59.871094 C 122.261719 59.34375 121.144531 59.316406 120.636719 59.804688 C 120.1875 60.234375 119.90625 60.757812 119.890625 61.386719 C 119.855469 62.6875 119.984375 63.972656 120.21875 65.246094 C 120.65625 67.605469 121.367188 69.894531 122.441406 72.066406 C 122.929688 73.050781 123.40625 74.066406 124.433594 74.675781 C 124.441406 74.765625 124.457031 74.828125 124.445312 74.894531 C 124.402344 75.175781 124.351562 75.457031 124.304688 75.738281 C 124.230469 76.175781 124.417969 76.464844 124.847656 76.585938 C 125.128906 76.660156 125.410156 76.738281 125.753906 76.832031 C 125.972656 76.625 126.3125 76.4375 126.4375 76.164062 C 126.867188 75.222656 127.230469 74.253906 127.59375 73.289062 C 128.488281 70.9375 129.359375 68.582031 130.257812 66.230469 C 130.84375 64.703125 131.367188 63.164062 131.691406 61.566406 C 131.847656 60.8125 131.847656 60.035156 131.691406 59.28125 Z M 125.578125 72.691406 C 125.164062 72.714844 125.054688 72.503906 124.917969 72.289062 C 124.070312 70.96875 123.496094 69.527344 123.039062 68.058594 C 122.441406 66.128906 121.996094 64.152344 121.992188 62.019531 C 122.386719 62.402344 122.554688 62.820312 122.714844 63.222656 C 123.390625 64.921875 124.039062 66.636719 124.707031 68.339844 C 124.832031 68.671875 124.988281 68.992188 125.175781 69.289062 C 125.398438 69.625 125.625 69.933594 125.558594 70.367188 C 125.5 70.777344 125.914062 70.824219 126.230469 71.003906 C 126.101562 71.59375 125.875 72.148438 125.578125 72.691406 Z M 128.085938 65.980469 C 128.222656 64.121094 128.617188 62.324219 129.617188 60.683594 C 129.542969 62.558594 128.765625 64.257812 128.089844 65.980469 Z M 128.085938 65.980469 " fill-opacity="1" fill-rule="nonzero"/></g></svg>