<?xml version="1.0" standalone="no"?>
<svg xmlns:xlink="http://www.w3.org/1999/xlink" id="wave" style="transform:rotate(0deg); transition: 0.3s" viewBox="0 0 1440 190" version="1.1" xmlns="http://www.w3.org/2000/svg"><defs><linearGradient id="sw-gradient-0" x1="0" x2="0" y1="1" y2="0"><stop stop-color="rgba(243, 106, 62, 1)" offset="0%"/><stop stop-color="rgba(255, 179, 11, 1)" offset="100%"/></linearGradient></defs><path style="transform:translate(0, 0px); opacity:1" fill="url(#sw-gradient-0)" d="M0,95L48,88.7C96,82,192,70,288,66.5C384,63,480,70,576,82.3C672,95,768,114,864,104.5C960,95,1056,57,1152,38C1248,19,1344,19,1440,28.5C1536,38,1632,57,1728,53.8C1824,51,1920,25,2016,34.8C2112,44,2208,89,2304,88.7C2400,89,2496,44,2592,41.2C2688,38,2784,76,2880,104.5C2976,133,3072,152,3168,158.3C3264,165,3360,158,3456,158.3C3552,158,3648,165,3744,142.5C3840,120,3936,70,4032,47.5C4128,25,4224,32,4320,44.3C4416,57,4512,76,4608,88.7C4704,101,4800,108,4896,107.7C4992,108,5088,101,5184,88.7C5280,76,5376,57,5472,47.5C5568,38,5664,38,5760,38C5856,38,5952,38,6048,31.7C6144,25,6240,13,6336,12.7C6432,13,6528,25,6624,28.5C6720,32,6816,25,6864,22.2L6912,19L6912,190L6864,190C6816,190,6720,190,6624,190C6528,190,6432,190,6336,190C6240,190,6144,190,6048,190C5952,190,5856,190,5760,190C5664,190,5568,190,5472,190C5376,190,5280,190,5184,190C5088,190,4992,190,4896,190C4800,190,4704,190,4608,190C4512,190,4416,190,4320,190C4224,190,4128,190,4032,190C3936,190,3840,190,3744,190C3648,190,3552,190,3456,190C3360,190,3264,190,3168,190C3072,190,2976,190,2880,190C2784,190,2688,190,2592,190C2496,190,2400,190,2304,190C2208,190,2112,190,2016,190C1920,190,1824,190,1728,190C1632,190,1536,190,1440,190C1344,190,1248,190,1152,190C1056,190,960,190,864,190C768,190,672,190,576,190C480,190,384,190,288,190C192,190,96,190,48,190L0,190Z"/></svg>